<?xml version="1.0" encoding="UTF-8" standalone="no"?>
<!-- Created with Inkscape (http://www.inkscape.org/) -->

<svg
   xmlns:dc="http://purl.org/dc/elements/1.1/"
   xmlns:cc="http://creativecommons.org/ns#"
   xmlns:rdf="http://www.w3.org/1999/02/22-rdf-syntax-ns#"
   xmlns:svg="http://www.w3.org/2000/svg"
   xmlns="http://www.w3.org/2000/svg"
   xmlns:sodipodi="http://sodipodi.sourceforge.net/DTD/sodipodi-0.dtd"
   xmlns:inkscape="http://www.inkscape.org/namespaces/inkscape"
   width="744.09448819"
   height="1052.3622047"
   id="svg2"
   version="1.1"
   inkscape:version="0.48.4 r9939"
   sodipodi:docname="ideas2.svg"
   inkscape:export-filename="/home/deepak/researchcode/genomedesign/ideas2.png"
   inkscape:export-xdpi="90"
   inkscape:export-ydpi="90">
  <defs
     id="defs4" />
  <sodipodi:namedview
     id="base"
     pagecolor="#ffffff"
     bordercolor="#666666"
     borderopacity="1.0"
     inkscape:pageopacity="0.0"
     inkscape:pageshadow="2"
     inkscape:zoom="0.98994949"
     inkscape:cx="349.38662"
     inkscape:cy="492.48613"
     inkscape:document-units="px"
     inkscape:current-layer="layer1"
     showgrid="false"
     showborder="false"
     inkscape:showpageshadow="false"
     inkscape:window-width="1535"
     inkscape:window-height="876"
     inkscape:window-x="65"
     inkscape:window-y="24"
     inkscape:window-maximized="1" />
  <metadata
     id="metadata7">
    <rdf:RDF>
      <cc:Work
         rdf:about="">
        <dc:format>image/svg+xml</dc:format>
        <dc:type
           rdf:resource="http://purl.org/dc/dcmitype/StillImage" />
        <dc:title></dc:title>
      </cc:Work>
    </rdf:RDF>
  </metadata>
  <g
     inkscape:label="Layer 1"
     inkscape:groupmode="layer"
     id="layer1">
    <rect
       style="fill:#9f9f9f;fill-opacity:1;stroke:none"
       id="rect2985-2-4-5-2-9"
       width="468.02658"
       height="2.0860322"
       x="24.851065"
       y="42.674816"
       rx="0"
       ry="0"
       inkscape:export-filename="/home/deepak/Desktop/temp.png"
       inkscape:export-xdpi="90"
       inkscape:export-ydpi="90" />
    <rect
       style="opacity:0.60905349;fill:#ca31a7;fill-opacity:0.75686275;stroke:none"
       id="rect3236-8"
       width="165.1147"
       height="41.876083"
       x="47.200455"
       y="-65.167984"
       ry="0.38365048"
       inkscape:export-filename="/home/deepak/Desktop/temp.png"
       inkscape:export-xdpi="90"
       inkscape:export-ydpi="90"
       transform="scale(1,-1)" />
    <rect
       style="opacity:0.60905349;fill:#ca31a7;fill-opacity:0.75686275;stroke:none"
       id="rect3236-8-2"
       width="74.200974"
       height="41.876083"
       x="246.75238"
       y="-64.559906"
       ry="0.38365048"
       inkscape:export-filename="/home/deepak/Desktop/temp.png"
       inkscape:export-xdpi="90"
       inkscape:export-ydpi="90"
       transform="scale(1,-1)" />
    <rect
       style="opacity:0.60905349;fill:#ca31a7;fill-opacity:0.75686275;stroke:none"
       id="rect3236-8-2-5"
       width="74.200974"
       height="41.876083"
       x="405.34634"
       y="-63.529449"
       ry="0.38365048"
       inkscape:export-filename="/home/deepak/Desktop/temp.png"
       inkscape:export-xdpi="90"
       inkscape:export-ydpi="90"
       transform="scale(1,-1)" />
    <path
       style="fill:#cbbed4;fill-opacity:0.75686276;stroke:none"
       d="m 284.74107,74.901786 -40.21875,29.906254 -155.812499,0 c -10.858646,0 -19.59375,8.7351 -19.59375,19.59375 l 0,29.5 c 0,10.85865 8.735104,19.59375 19.59375,19.59375 l 390.124999,0 c 10.85865,0 19.59375,-8.7351 19.59375,-19.59375 l 0,-29.5 c 0,-10.85865 -8.7351,-19.59375 -19.59375,-19.59375 l -151.96875,0 -42.125,-29.906254 z"
       id="rect4284"
       inkscape:connector-curvature="0"
       inkscape:export-filename="/home/deepak/Desktop/temp.png"
       inkscape:export-xdpi="90"
       inkscape:export-ydpi="90" />
    <path
       style="fill:#000000;fill-opacity:0.75686275;stroke:none"
       d="m 120.89732,116.69643 0,5.65625 -13.75,0 -8.218748,0 -0.34375,0 0,30.375 8.562498,0 0,-21.78125 13.75,0 0,4.9375 16.59375,-9.59375 -16.59375,-9.59375 z"
       id="rect4468"
       inkscape:connector-curvature="0"
       inkscape:export-filename="/home/deepak/Desktop/temp.png"
       inkscape:export-xdpi="90"
       inkscape:export-ydpi="90" />
    <path
       style="fill:#000000;fill-opacity:0.75686275;stroke:none"
       d="m 202.89598,138.17413 37.27667,0 20.20305,13.63706 -20.20305,12.12183 -37.27667,0 z"
       id="rect4475"
       inkscape:connector-curvature="0"
       sodipodi:nodetypes="cccccc"
       inkscape:export-filename="/home/deepak/Desktop/temp.png"
       inkscape:export-xdpi="90"
       inkscape:export-ydpi="90" />
    <path
       style="fill:#000000;fill-opacity:0.75686275;stroke:none"
       d="m 266.67683,138.93174 118.70524,0 20.20305,13.63706 -20.20305,12.12183 -118.70524,0 z"
       id="rect4475-0"
       inkscape:connector-curvature="0"
       sodipodi:nodetypes="cccccc"
       inkscape:export-filename="/home/deepak/Desktop/temp.png"
       inkscape:export-xdpi="90"
       inkscape:export-ydpi="90" />
    <path
       style="fill:#000000;fill-opacity:0.75686275;stroke:none"
       d="m 141.11728,138.05416 37.27667,0 20.20305,13.63706 -20.20305,12.12183 -37.27667,0 z"
       id="rect4475-1"
       inkscape:connector-curvature="0"
       sodipodi:nodetypes="cccccc"
       inkscape:export-filename="/home/deepak/Desktop/temp.png"
       inkscape:export-xdpi="90"
       inkscape:export-ydpi="90" />
    <path
       style="fill:#000000;fill-opacity:0.75686275;stroke:none"
       id="path4553"
       d="m 121.94899,2.5486566 c -5.24475,2.6088698 -10.52289,5.1454412 -15.83196,7.6209384 -4.28512,2.041714 -8.750858,3.653007 -13.371372,4.731053 -2.01147,0.468305 -4.067877,0.578531 -6.123773,0.613178 -1.243157,0.06622 -2.331415,-0.483935 -3.292608,-1.218299 -0.919546,-0.643287 -1.304554,-1.665373 -1.506036,-2.724943 -0.229338,-1.161165 0.105507,-2.208354 0.782832,-3.139444 4.573131,-4.2183332 9.44432,-6.1608827 15.135498,-6.8554609 1.892269,-0.2248323 3.805909,-0.076623 5.639409,0.4343366 1.73758,0.3773433 3.33695,1.172397 5.01881,1.7225868 1.75897,0.6145188 3.52112,1.2164913 5.20547,2.0190532 2.0868,0.8664908 4.12644,1.8275743 6.26062,2.577536 1.93411,0.7935684 3.90638,1.4628607 5.87668,2.1523483 1.73215,0.509681 3.33964,1.331452 5.07233,1.836225 1.63707,0.458446 3.25022,0.894736 4.94361,1.08903 1.79253,0.223638 3.56011,0.153186 5.34173,-0.08481 2.05182,-0.417935 4.04071,-1.061365 5.96826,-1.873744 3.26697,-1.741014 8.59878,-4.9039629 -6.17485,3.581019 0,0 9.78092,-3.785332 9.78092,-3.785332 l 0,0 c -3.83254,2.227382 -7.69376,4.848517 -11.82627,6.667215 -1.99423,0.75269 -4.04348,1.383095 -6.16163,1.672374 -1.83909,0.179026 -3.68319,0.14807 -5.51537,-0.112866 -1.71734,-0.267432 -3.37234,-0.753072 -5.0388,-1.240122 -1.70941,-0.575164 -3.34892,-1.335705 -5.07456,-1.867119 -1.9758,-0.662286 -3.89685,-1.455603 -5.8437,-2.198317 C 109.07053,13.35972 106.98,12.43094 104.86788,11.547959 103.174,10.819436 101.42924,10.220748 99.683755,9.6285944 98.051313,9.0241594 96.444843,8.3231391 94.724502,7.996049 92.944595,7.6530539 91.153539,7.5403379 89.353629,7.8373797 c -1.11551,0.1547145 -2.220831,0.325333 -3.301245,0.6560224 -0.365219,0.1117848 -1.403927,0.5842518 -1.080727,0.3807282 2.438171,-1.5353483 11.174241,-6.6620478 7.441474,-4.3979794 -0.911778,0.362913 -1.300065,1.1592064 -1.222106,2.1291637 0.106377,0.8251206 0.31958,1.5336514 1.069991,1.9944076 0.90024,0.5516333 1.824298,0.7905786 2.890963,0.6960253 1.953479,-0.028658 3.900795,-0.2204511 5.808091,-0.659981 4.48664,-1.0778903 8.80797,-2.7025376 12.97452,-4.684888 5.4385,-2.5398665 10.83739,-5.157694 16.18067,-7.8927388 0,0 -8.16627,6.4905169 -8.16627,6.4905169 z"
       inkscape:connector-curvature="0"
       inkscape:export-filename="/home/deepak/Desktop/temp.png"
       inkscape:export-xdpi="90"
       inkscape:export-ydpi="90" />
    <path
       style="fill:#000000;fill-opacity:0.75686275;stroke:none"
       id="path4557"
       d="m 257.14611,13.827366 c 2.32809,-2.122421 4.69178,-4.2085369 6.93088,-6.4255841 2.04698,-1.9304254 3.95375,-3.9930502 5.83774,-6.080073 3.63497,-4.2543614 8.21685,-5.9682254 13.29379,-8.8621954 1.33508,-0.486097 2.34755,0.047812 3.05492,1.1917645 0.59736,1.3103367 0.50962,2.767372 0.63986,4.1672707 0.13944,1.81956337 0.61715,3.5618487 1.11959,5.3055256 0.47382,1.4084224 0.83891,2.8840847 1.58961,4.1758672 0.67493,0.8111825 1.6489,1.2960915 2.69744,1.0782255 0.21597,-0.032458 0.43556,-0.046381 0.64792,-0.097373 0.80387,-0.193025 1.4855,-0.6024907 2.18448,-1.0242974 0.28076,-0.1694291 1.12697,-0.6710094 0.84211,-0.508577 -2.69208,1.5350384 -5.376,3.0843546 -8.06399,4.6265323 1.83628,-1.223694 3.5225,-2.6581721 5.2353,-4.0463069 1.65736,-1.4021416 3.23881,-2.8763926 5.00757,-4.1396799 4.29541,-2.93898329 8.55177,-6.2778166 13.77177,-6.7522455 1.61903,-0.014588 2.73183,0.9016627 4.00459,1.7456454 1.3083,0.96134769 2.23927,2.31707133 3.42349,3.4009867 1.42974,1.442416 3.05334,2.1405345 5.06079,2.2915442 1.56272,-0.1341816 0.79383,-0.042288 2.3071,-0.2720168 0,0 -8.38403,6.2373234 -8.38403,6.2373234 l 0,0 c -1.58494,0.1208661 -0.76775,0.095107 -2.45197,0.063798 -2.141,-0.3865456 -3.94662,-1.2324255 -5.4886,-2.8009167 -1.10483,-1.0858193 -2.06513,-2.3312239 -3.34236,-3.2349742 -1.12415,-0.7461661 -2.17037,-1.3549298 -3.57765,-1.1250612 -0.74315,0.127032 -1.45778,0.2726838 -2.1616,0.5542496 -0.2541,0.1016553 -0.98307,0.4787382 -0.74794,0.3386805 4.6273,-2.75631057 11.32775,-6.5501611 7.33067,-4.2843273 -1.7985,1.22954666 -3.47191,2.571068 -5.05547,4.0726047 -1.70321,1.4107361 -3.42331,2.8036491 -5.17459,4.1528262 -3.28045,1.9222494 -6.55622,3.8524971 -9.84135,5.7667481 -1.26553,0.737432 -2.60356,1.288261 -4.09448,1.246284 -1.34561,-0.236198 -2.46973,-0.872056 -3.2712,-2.009375 -0.79228,-1.369451 -1.19262,-2.9249228 -1.65615,-4.429138 -0.5312,-1.7886382 -1.05282,-3.5753128 -1.22921,-5.443034 -0.18011,-1.2361 -0.0865,-2.5193299 -0.48367,-3.7152763 -0.51722,-0.7710318 -1.46663,-0.2710755 -2.13118,0.0594174 2.79934,-1.62394493 5.60769,-3.23245373 8.39801,-4.87183493 0.24105,-0.1416234 -0.50848,0.2349597 -0.74884,0.3777676 -1.18179,0.7021773 -2.15578,1.7354668 -3.08803,2.726364 -1.91991,2.09815721 -3.79556,4.2386095 -5.90414,6.153494 -2.15367,2.2367035 -4.55244,4.2130419 -6.72008,6.4337076 0,0 -9.7611,3.9556596 -9.7611,3.9556596 z"
       inkscape:connector-curvature="0"
       inkscape:export-filename="/home/deepak/Desktop/temp.png"
       inkscape:export-xdpi="90"
       inkscape:export-ydpi="90" />
    <path
       style="fill:#000000;fill-opacity:0.75686275;stroke:none"
       id="path4559"
       d="m 437.7956,-13.399951 c -2.23432,1.327177 -4.24133,2.970771 -5.92142,4.9494225 -1.37025,1.6012829 -1.85972,3.5343435 -2.10339,5.5733543 -0.0822,1.92599035 0.2265,3.8073657 0.96806,5.5814349 0.71979,1.8087655 2.02934,3.2250956 3.56408,4.3772493 1.7145,1.1010314 2.93514,1.3361264 4.91924,1.1860318 1.64195,-0.1426534 3.2139,-0.6992963 4.76937,-1.2131028 3.27527,-1.6244107 7.99307,-4.4772112 -6.98042,4.069522 -0.20769,0.118546 0.41342,-0.241104 0.61195,-0.374416 0.54754,-0.367664 0.55752,-0.417751 1.04106,-0.8797391 0.86555,-0.8664916 1.31394,-1.9007552 1.52165,-3.0864132 0.18058,-1.5328006 0.14646,-3.0816416 0.13993,-4.6223682 -0.0948,-1.24187381 -0.47567,-2.4462679 -1.18112,-3.4736081 -0.7017,-1.164246 -1.63767,-2.0725584 -2.85029,-2.6801623 -0.72893,-0.2739554 -1.45783,-0.5259581 -2.18263,-0.816557 0,0 8.79701,-5.8905321 8.79701,-5.8905321 l 0,0 c 0.74904,0.303031 1.53084,0.535189 2.22825,0.9533011 1.27174,0.7919921 2.34077,1.8004194 3.11528,3.0960323 0.79523,1.2168066 1.31568,2.5708009 1.45865,4.025667 0.004,1.5774557 0.0124,3.15555769 -0.0446,4.7322746 -0.12479,1.3582042 -0.41335,2.5896892 -1.26966,3.6934656 -3.21491,3.8245247 -8.11116,5.9163634 -12.72737,7.7079244 -1.59822,0.507945 -3.24548,0.931378 -4.93172,0.958902 -1.95614,-0.034 -3.71645,-0.619539 -5.29988,-1.797838 -1.6301,-1.296559 -3.0486,-2.8819614 -3.83796,-4.8362238 -0.83471,-1.9334624 -1.20959,-3.9392254 -1.22545,-6.0493755 0.2102,-2.17631491 0.55112,-4.3476495 1.90364,-6.1448164 0.37157,-0.4752001 1.19534,-1.5551165 1.6113,-1.9774857 1.21839,-1.2371846 2.68615,-2.2494101 4.09102,-3.2546983 0,0 9.81539,-3.8072453 9.81539,-3.8072453 z"
       inkscape:connector-curvature="0"
       inkscape:export-filename="/home/deepak/Desktop/temp.png"
       inkscape:export-xdpi="90"
       inkscape:export-ydpi="90" />
    <path
       style="fill:#000000;fill-opacity:0.75686275;stroke:none"
       id="path4561"
       d="m 465.39446,-31.637185 c -4.36203,3.819636 -8.61352,7.725898 -12.59592,11.943157 -4.2194,4.596743 -8.27094,9.345635 -12.31044,14.1004817 -2.75261,3.106085 -5.39634,6.30592267 -8.11546,9.4406989 -1.60526,1.7578631 -3.11546,3.5995895 -4.78089,5.3014307 -1.17798,1.2403077 -2.33189,2.5019957 -3.41716,3.8245897 -0.70792,0.950621 -1.43902,1.882875 -2.18088,2.807099 0,0 -9.6837,4.119624 -9.6837,4.119624 l 0,0 c 0.76617,-0.902902 1.527,-1.811525 2.20909,-2.780928 1.02016,-1.406583 2.22157,-2.660155 3.37338,-3.953631 1.7367,-1.694744 3.32682,-3.5123764 4.96287,-5.3035625 2.80474,-3.1551355 5.51827,-6.389875 8.34666,-9.5242553 4.11034,-4.7684342 8.2174,-9.5419192 12.44756,-14.2047342 3.82513,-4.14965 7.88328,-8.033341 12.1043,-11.776705 0,0 9.64059,-3.993265 9.64059,-3.993265 z"
       inkscape:connector-curvature="0"
       inkscape:export-filename="/home/deepak/Desktop/temp.png"
       inkscape:export-xdpi="90"
       inkscape:export-ydpi="90" />
    <rect
       style="fill:#9f9f9f;fill-opacity:1;stroke:none"
       id="rect2985-2-4-5-2-9-2"
       width="468.02658"
       height="2.0860322"
       x="27.616207"
       y="242.87546"
       rx="0"
       ry="0"
       inkscape:export-filename="/home/deepak/Desktop/temp.png"
       inkscape:export-xdpi="90"
       inkscape:export-ydpi="90" />
    <rect
       style="opacity:0.60905349;fill:#ca31a7;fill-opacity:0.75686275;stroke:none"
       id="rect3236-8-5"
       width="165.1147"
       height="41.876083"
       x="49.965603"
       y="-265.36862"
       ry="0.38365048"
       inkscape:export-filename="/home/deepak/Desktop/temp.png"
       inkscape:export-xdpi="90"
       inkscape:export-ydpi="90"
       transform="scale(1,-1)" />
    <rect
       style="opacity:0.60905349;fill:#ca31a7;fill-opacity:0.75686275;stroke:none"
       id="rect3236-8-2-9"
       width="74.200974"
       height="41.876083"
       x="317.19775"
       y="-261.73007"
       ry="0.38365048"
       inkscape:export-filename="/home/deepak/Desktop/temp.png"
       inkscape:export-xdpi="90"
       inkscape:export-ydpi="90"
       transform="scale(1,-1)" />
    <rect
       style="opacity:0.60905349;fill:#ca31a7;fill-opacity:0.75686275;stroke:none"
       id="rect3236-8-2-5-5"
       width="74.200974"
       height="41.876083"
       x="408.11148"
       y="-263.73007"
       ry="0.38365048"
       inkscape:export-filename="/home/deepak/Desktop/temp.png"
       inkscape:export-xdpi="90"
       inkscape:export-ydpi="90"
       transform="scale(1,-1)" />
    <path
       style="fill:#000000;fill-opacity:0.75686275;stroke:none"
       id="path4553-0"
       d="m 124.71415,202.74929 c -5.24475,2.60886 -10.52289,5.14544 -15.83196,7.62093 -4.28512,2.04172 -8.75086,3.65301 -13.371375,4.73106 -2.01147,0.4683 -4.06788,0.57853 -6.12378,0.61317 -1.24315,0.0662 -2.33141,-0.48393 -3.2926,-1.21829 -0.91955,-0.64329 -1.30456,-1.66538 -1.50604,-2.72495 -0.22934,-1.16116 0.10551,-2.20835 0.78283,-3.13944 4.57313,-4.21833 9.44432,-6.16088 15.135505,-6.85546 1.89227,-0.22483 3.80591,-0.0766 5.63941,0.43433 1.73758,0.37735 3.33695,1.1724 5.01881,1.72259 1.75897,0.61452 3.52112,1.21649 5.20547,2.01905 2.0868,0.8665 4.12644,1.82758 6.26062,2.57754 1.93411,0.79357 3.90638,1.46286 5.87668,2.15235 1.73215,0.50968 3.33964,1.33145 5.07233,1.83622 1.63707,0.45845 3.25022,0.89474 4.94361,1.08903 1.79253,0.22364 3.56011,0.15319 5.34173,-0.0848 2.05182,-0.41793 4.04071,-1.06136 5.96826,-1.87374 3.26697,-1.74101 8.59878,-4.90396 -6.17485,3.58102 0,0 9.78092,-3.78533 9.78092,-3.78533 l 0,0 c -3.83254,2.22738 -7.69376,4.84851 -11.82627,6.66721 -1.99423,0.75269 -4.04348,1.3831 -6.16163,1.67238 -1.83909,0.17902 -3.68319,0.14807 -5.51537,-0.11287 -1.71734,-0.26743 -3.37234,-0.75307 -5.0388,-1.24012 -1.70941,-0.57517 -3.34892,-1.33571 -5.07456,-1.86712 -1.9758,-0.66229 -3.89685,-1.4556 -5.8437,-2.19832 -2.1437,-0.80537 -4.23423,-1.73415 -6.34635,-2.61713 -1.69388,-0.72853 -3.43864,-1.32721 -5.18413,-1.91937 -1.63244,-0.60443 -3.238915,-1.30545 -4.959255,-1.63254 -1.77991,-0.343 -3.57096,-0.45571 -5.37087,-0.15867 -1.11551,0.15471 -2.22083,0.32533 -3.30125,0.65602 -0.36522,0.11179 -1.40392,0.58425 -1.08072,0.38073 2.43817,-1.53535 11.17424,-6.66205 7.44147,-4.39798 -0.91178,0.36291 -1.30007,1.15921 -1.22211,2.12916 0.10638,0.82512 0.31958,1.53365 1.06999,1.99441 0.90024,0.55163 1.8243,0.79058 2.89097,0.69603 1.95348,-0.0287 3.900795,-0.22046 5.808095,-0.65998 4.48664,-1.0779 8.80797,-2.70254 12.97452,-4.68489 5.4385,-2.53987 10.83739,-5.1577 16.18067,-7.89274 0,0 -8.16627,6.49052 -8.16627,6.49052 z"
       inkscape:connector-curvature="0"
       inkscape:export-filename="/home/deepak/Desktop/temp.png"
       inkscape:export-xdpi="90"
       inkscape:export-ydpi="90" />
    <path
       style="fill:#000000;fill-opacity:0.75686275;stroke:none"
       id="path4559-0"
       d="m 440.56076,186.80068 c -2.23432,1.32717 -4.24133,2.97077 -5.92142,4.94942 -1.37025,1.60128 -1.85972,3.53434 -2.10339,5.57335 -0.0822,1.92599 0.2265,3.80737 0.96806,5.58144 0.71979,1.80876 2.02934,3.22509 3.56408,4.37725 1.7145,1.10103 2.93514,1.33612 4.91924,1.18603 1.64195,-0.14265 3.2139,-0.6993 4.76937,-1.2131 3.27527,-1.62441 7.99307,-4.47721 -6.98042,4.06952 -0.20769,0.11855 0.41342,-0.2411 0.61195,-0.37442 0.54754,-0.36766 0.55752,-0.41775 1.04106,-0.87974 0.86555,-0.86649 1.31394,-1.90075 1.52165,-3.08641 0.18058,-1.5328 0.14646,-3.08164 0.13993,-4.62237 -0.0948,-1.24187 -0.47567,-2.44626 -1.18112,-3.47361 -0.7017,-1.16424 -1.63767,-2.07255 -2.85029,-2.68016 -0.72893,-0.27395 -1.45783,-0.52596 -2.18263,-0.81655 0,0 8.79701,-5.89054 8.79701,-5.89054 l 0,0 c 0.74904,0.30303 1.53084,0.53519 2.22825,0.9533 1.27174,0.792 2.34077,1.80042 3.11528,3.09604 0.79523,1.2168 1.31568,2.5708 1.45865,4.02566 0.004,1.57746 0.0124,3.15556 -0.0446,4.73228 -0.12479,1.3582 -0.41335,2.58969 -1.26966,3.69346 -3.21491,3.82453 -8.11116,5.91637 -12.72737,7.70793 -1.59822,0.50794 -3.24548,0.93138 -4.93172,0.9589 -1.95614,-0.034 -3.71645,-0.61954 -5.29988,-1.79784 -1.6301,-1.29656 -3.0486,-2.88196 -3.83796,-4.83622 -0.83471,-1.93346 -1.20959,-3.93923 -1.22545,-6.04938 0.2102,-2.17631 0.55112,-4.34765 1.90364,-6.14481 0.37157,-0.4752 1.19534,-1.55512 1.6113,-1.97749 1.21839,-1.23718 2.68615,-2.24941 4.09102,-3.2547 0,0 9.81539,-3.80724 9.81539,-3.80724 z"
       inkscape:connector-curvature="0"
       inkscape:export-filename="/home/deepak/Desktop/temp.png"
       inkscape:export-xdpi="90"
       inkscape:export-ydpi="90" />
    <path
       style="fill:#000000;fill-opacity:0.75686275;stroke:none"
       id="path4561-4"
       d="m 468.15962,168.56344 c -4.36203,3.81964 -8.61352,7.7259 -12.59592,11.94316 -4.2194,4.59674 -8.27094,9.34564 -12.31044,14.10048 -2.75261,3.10609 -5.39634,6.30592 -8.11546,9.4407 -1.60526,1.75786 -3.11546,3.59959 -4.78089,5.30143 -1.17798,1.24031 -2.33189,2.502 -3.41716,3.82459 -0.70792,0.95062 -1.43902,1.88288 -2.18088,2.8071 0,0 -9.6837,4.11962 -9.6837,4.11962 l 0,0 c 0.76617,-0.9029 1.527,-1.81152 2.20909,-2.78092 1.02016,-1.40659 2.22157,-2.66016 3.37338,-3.95363 1.7367,-1.69475 3.32682,-3.51238 4.96287,-5.30357 2.80474,-3.15513 5.51827,-6.38987 8.34666,-9.52425 4.11034,-4.76844 8.2174,-9.54192 12.44756,-14.20474 3.82513,-4.14965 7.88328,-8.03334 12.1043,-11.7767 0,0 9.64059,-3.99327 9.64059,-3.99327 z"
       inkscape:connector-curvature="0"
       inkscape:export-filename="/home/deepak/Desktop/temp.png"
       inkscape:export-xdpi="90"
       inkscape:export-ydpi="90" />
    <path
       style="fill:#000000;fill-opacity:0.75686275;stroke:none"
       id="path4606"
       d="m 364.66047,191.66044 c -2.56076,2.19934 -4.86674,4.69044 -6.74431,7.49663 -1.31212,1.90945 -2.14246,3.99572 -2.54889,6.26318 -0.16826,1.87302 0.20935,3.56743 1.23554,5.12458 1.30058,1.56536 2.96769,2.35401 4.91147,2.78392 2.25208,0.46162 4.48279,-0.0955 6.71874,-0.38479 2.18826,-0.12761 4.28738,-0.9132 6.22983,-1.89348 -29.30183,14.30801 -12.63484,8.79765 -10.18849,5.32891 0.2524,-0.3579 0.3572,-0.68764 0.51717,-1.08842 0.33681,-1.43132 0.49981,-2.96183 0.0345,-4.37416 -0.54298,-1.64933 -1.86724,-2.55097 -3.45088,-3.08205 -2.29369,-0.75348 -4.29676,0.28181 -6.40529,1.03427 -0.37171,0.13616 -0.74341,0.27233 -1.11512,0.40849 0,0 11.72893,-9.15664 11.72893,-9.15664 l 0,0 c 0.36728,-0.1297 0.73456,-0.2594 1.10183,-0.3891 2.35717,-0.82962 4.69694,-1.17017 7.08474,-0.18152 1.85495,0.88554 3.42265,2.10187 4.13419,4.10725 0.6706,1.67846 0.62388,3.4002 0.42526,5.18194 -0.23028,1.29915 -0.66233,2.86432 -1.88906,3.58937 -4.52432,2.67408 -9.10551,5.25076 -13.65827,7.87614 -2.09446,0.80842 -4.22879,1.41304 -6.48525,1.54664 -2.36964,0.30354 -4.7402,0.59475 -7.08344,-0.0863 -2.1676,-0.71655 -4.06336,-1.85207 -5.48597,-3.68152 -1.2436,-1.87094 -1.73605,-3.84086 -1.74712,-6.09461 0.31043,-2.45263 0.97081,-4.78566 2.38155,-6.85619 1.74034,-2.95691 4.06902,-5.46666 6.49406,-7.87843 0,0 13.80428,-5.59414 13.80428,-5.59414 z"
       inkscape:connector-curvature="0"
       inkscape:export-filename="/home/deepak/Desktop/temp.png"
       inkscape:export-xdpi="90"
       inkscape:export-ydpi="90" />
    <rect
       style="fill:#9f9f9f;fill-opacity:1;stroke:none"
       id="rect2985-2-4-5-2-9-2-4"
       width="468.02658"
       height="2.0860322"
       x="28.626385"
       y="324.69781"
       rx="0"
       ry="0"
       inkscape:export-filename="/home/deepak/Desktop/temp.png"
       inkscape:export-xdpi="90"
       inkscape:export-ydpi="90" />
    <rect
       style="opacity:0.60905349;fill:#ca31a7;fill-opacity:0.75686275;stroke:none"
       id="rect3236-8-5-2"
       width="165.1147"
       height="41.876083"
       x="50.97578"
       y="-347.19098"
       ry="0.38365048"
       inkscape:export-filename="/home/deepak/Desktop/temp.png"
       inkscape:export-xdpi="90"
       inkscape:export-ydpi="90"
       transform="scale(1,-1)" />
    <rect
       style="opacity:0.60905349;fill:#ca31a7;fill-opacity:0.75686275;stroke:none"
       id="rect3236-8-2-9-3"
       width="74.200974"
       height="41.876083"
       x="318.20792"
       y="-343.55243"
       ry="0.38365048"
       inkscape:export-filename="/home/deepak/Desktop/temp.png"
       inkscape:export-xdpi="90"
       inkscape:export-ydpi="90"
       transform="scale(1,-1)" />
    <rect
       style="opacity:0.60905349;fill:#ca31a7;fill-opacity:0.75686275;stroke:none"
       id="rect3236-8-2-5-5-7"
       width="74.200974"
       height="41.876083"
       x="409.12161"
       y="-345.55243"
       ry="0.38365048"
       inkscape:export-filename="/home/deepak/Desktop/temp.png"
       inkscape:export-xdpi="90"
       inkscape:export-ydpi="90"
       transform="scale(1,-1)" />
    <path
       style="fill:#000000;fill-opacity:0.75686275;stroke:none"
       id="path4553-0-7"
       d="m 125.72431,284.57164 c -5.24475,2.60886 -10.52289,5.14544 -15.83196,7.62093 -4.28512,2.04172 -8.75086,3.65301 -13.37137,4.73106 -2.01147,0.4683 -4.06788,0.57853 -6.12378,0.61317 -1.24315,0.0662 -2.33141,-0.48393 -3.2926,-1.21829 -0.91955,-0.64329 -1.30456,-1.66538 -1.50604,-2.72495 -0.22934,-1.16116 0.10551,-2.20835 0.78283,-3.13944 4.57313,-4.21833 9.44432,-6.16088 15.1355,-6.85546 1.89227,-0.22483 3.80591,-0.0766 5.63941,0.43433 1.73758,0.37735 3.33695,1.1724 5.01881,1.72259 1.75897,0.61452 3.52112,1.21649 5.20547,2.01905 2.0868,0.8665 4.12644,1.82758 6.26062,2.57754 1.93411,0.79357 3.90638,1.46286 5.87668,2.15235 1.73215,0.50968 3.33964,1.33145 5.07233,1.83622 1.63707,0.45845 3.25022,0.89474 4.94361,1.08903 1.79253,0.22364 3.56011,0.15319 5.34173,-0.0848 2.05182,-0.41793 4.04071,-1.06136 5.96826,-1.87374 3.26697,-1.74101 8.59878,-4.90396 -6.17485,3.58102 0,0 9.78092,-3.78533 9.78092,-3.78533 l 0,0 c -3.83254,2.22738 -7.69376,4.84851 -11.82627,6.66721 -1.99423,0.75269 -4.04348,1.3831 -6.16163,1.67238 -1.83909,0.17902 -3.68319,0.14807 -5.51537,-0.11287 -1.71734,-0.26743 -3.37234,-0.75307 -5.0388,-1.24012 -1.70941,-0.57517 -3.34892,-1.33571 -5.07456,-1.86712 -1.9758,-0.66229 -3.89685,-1.4556 -5.8437,-2.19832 -2.1437,-0.80537 -4.23423,-1.73415 -6.34635,-2.61713 -1.69388,-0.72853 -3.43864,-1.32721 -5.18413,-1.91937 -1.63244,-0.60443 -3.23891,-1.30545 -4.95925,-1.63254 -1.77991,-0.343 -3.57096,-0.45571 -5.37087,-0.15867 -1.11551,0.15471 -2.22083,0.32533 -3.30125,0.65602 -0.36522,0.11179 -1.40392,0.58425 -1.08072,0.38073 2.43817,-1.53535 11.17424,-6.66205 7.44147,-4.39798 -0.91178,0.36291 -1.30007,1.15921 -1.22211,2.12916 0.10638,0.82512 0.31958,1.53365 1.06999,1.99441 0.90024,0.55163 1.8243,0.79058 2.89097,0.69603 1.95348,-0.0287 3.90079,-0.22046 5.80809,-0.65998 4.48664,-1.0779 8.80797,-2.70254 12.97452,-4.68489 5.4385,-2.53987 10.83739,-5.1577 16.18067,-7.89274 0,0 -8.16627,6.49052 -8.16627,6.49052 z"
       inkscape:connector-curvature="0"
       inkscape:export-filename="/home/deepak/Desktop/temp.png"
       inkscape:export-xdpi="90"
       inkscape:export-ydpi="90" />
    <path
       style="fill:#000000;fill-opacity:0.75686275;stroke:none"
       id="path4559-0-7"
       d="m 441.57092,268.62303 c -2.23432,1.32717 -4.24133,2.97077 -5.92142,4.94942 -1.37025,1.60128 -1.85972,3.53434 -2.10339,5.57335 -0.0822,1.92599 0.2265,3.80737 0.96806,5.58144 0.71979,1.80876 2.02934,3.22509 3.56408,4.37725 1.7145,1.10103 2.93514,1.33612 4.91924,1.18603 1.64195,-0.14265 3.2139,-0.6993 4.76937,-1.2131 3.27527,-1.62441 7.99307,-4.47721 -6.98042,4.06952 -0.20769,0.11855 0.41342,-0.2411 0.61195,-0.37442 0.54754,-0.36766 0.55752,-0.41775 1.04106,-0.87974 0.86555,-0.86649 1.31394,-1.90075 1.52165,-3.08641 0.18058,-1.5328 0.14646,-3.08164 0.13993,-4.62237 -0.0948,-1.24187 -0.47567,-2.44626 -1.18112,-3.47361 -0.7017,-1.16424 -1.63767,-2.07255 -2.85029,-2.68016 -0.72893,-0.27395 -1.45783,-0.52596 -2.18263,-0.81655 0,0 8.79701,-5.89054 8.79701,-5.89054 l 0,0 c 0.74904,0.30303 1.53084,0.53519 2.22825,0.9533 1.27174,0.792 2.34077,1.80042 3.11528,3.09604 0.79523,1.2168 1.31568,2.5708 1.45865,4.02566 0.004,1.57746 0.0124,3.15556 -0.0446,4.73228 -0.12479,1.3582 -0.41335,2.58969 -1.26966,3.69346 -3.21491,3.82453 -8.11116,5.91637 -12.72737,7.70793 -1.59822,0.50794 -3.24548,0.93138 -4.93172,0.9589 -1.95614,-0.034 -3.71645,-0.61954 -5.29988,-1.79784 -1.6301,-1.29656 -3.0486,-2.88196 -3.83796,-4.83622 -0.83471,-1.93346 -1.20959,-3.93923 -1.22545,-6.04938 0.2102,-2.17631 0.55112,-4.34765 1.90364,-6.14481 0.37157,-0.4752 1.19534,-1.55512 1.6113,-1.97749 1.21839,-1.23718 2.68615,-2.24941 4.09102,-3.2547 0,0 9.81539,-3.80724 9.81539,-3.80724 z"
       inkscape:connector-curvature="0"
       inkscape:export-filename="/home/deepak/Desktop/temp.png"
       inkscape:export-xdpi="90"
       inkscape:export-ydpi="90" />
    <path
       style="fill:#000000;fill-opacity:0.75686275;stroke:none"
       id="path4561-4-3"
       d="m 469.16978,250.38579 c -4.36203,3.81964 -8.61352,7.7259 -12.59592,11.94316 -4.2194,4.59674 -8.27094,9.34564 -12.31044,14.10048 -2.75261,3.10609 -5.39634,6.30592 -8.11546,9.4407 -1.60526,1.75786 -3.11546,3.59959 -4.78089,5.30143 -1.17798,1.24031 -2.33189,2.502 -3.41716,3.82459 -0.70792,0.95062 -1.43902,1.88288 -2.18088,2.8071 0,0 -9.6837,4.11962 -9.6837,4.11962 l 0,0 c 0.76617,-0.9029 1.527,-1.81152 2.20909,-2.78092 1.02016,-1.40659 2.22157,-2.66016 3.37338,-3.95363 1.7367,-1.69475 3.32682,-3.51238 4.96287,-5.30357 2.80474,-3.15513 5.51827,-6.38987 8.34666,-9.52425 4.11034,-4.76844 8.2174,-9.54192 12.44756,-14.20474 3.82513,-4.14965 7.88328,-8.03334 12.1043,-11.7767 0,0 9.64059,-3.99327 9.64059,-3.99327 z"
       inkscape:connector-curvature="0"
       inkscape:export-filename="/home/deepak/Desktop/temp.png"
       inkscape:export-xdpi="90"
       inkscape:export-ydpi="90" />
    <path
       style="fill:#000000;fill-opacity:0.75686275;stroke:none"
       id="path4606-5"
       d="m 365.67063,273.48279 c -2.56076,2.19934 -4.86674,4.69044 -6.74431,7.49663 -1.31212,1.90945 -2.14246,3.99572 -2.54889,6.26318 -0.16826,1.87302 0.20935,3.56743 1.23554,5.12458 1.30058,1.56536 2.96769,2.35401 4.91147,2.78392 2.25208,0.46162 4.48279,-0.0955 6.71874,-0.38479 2.18826,-0.12761 4.28738,-0.9132 6.22983,-1.89348 -29.30183,14.30801 -12.63484,8.79765 -10.18849,5.32891 0.2524,-0.3579 0.3572,-0.68764 0.51717,-1.08842 0.33681,-1.43132 0.49981,-2.96183 0.0345,-4.37416 -0.54298,-1.64933 -1.86724,-2.55097 -3.45088,-3.08205 -2.29369,-0.75348 -4.29676,0.28181 -6.40529,1.03427 -0.37171,0.13616 -0.74341,0.27233 -1.11512,0.40849 0,0 11.72893,-9.15664 11.72893,-9.15664 l 0,0 c 0.36728,-0.1297 0.73456,-0.2594 1.10183,-0.3891 2.35717,-0.82962 4.69694,-1.17017 7.08474,-0.18152 1.85495,0.88554 3.42265,2.10187 4.13419,4.10725 0.6706,1.67846 0.62388,3.4002 0.42526,5.18194 -0.23028,1.29915 -0.66233,2.86432 -1.88906,3.58937 -4.52432,2.67408 -9.10551,5.25076 -13.65827,7.87614 -2.09446,0.80842 -4.22879,1.41304 -6.48525,1.54664 -2.36964,0.30354 -4.7402,0.59475 -7.08344,-0.0863 -2.1676,-0.71655 -4.06336,-1.85207 -5.48597,-3.68152 -1.2436,-1.87094 -1.73605,-3.84086 -1.74712,-6.09461 0.31043,-2.45263 0.97081,-4.78566 2.38155,-6.85619 1.74034,-2.95691 4.06902,-5.46666 6.49406,-7.87843 0,0 13.80428,-5.59414 13.80428,-5.59414 z"
       inkscape:connector-curvature="0"
       inkscape:export-filename="/home/deepak/Desktop/temp.png"
       inkscape:export-xdpi="90"
       inkscape:export-ydpi="90" />
    <path
       style="fill:none;stroke:#ff0000;stroke-width:4;stroke-linecap:butt;stroke-linejoin:miter;stroke-opacity:1;stroke-miterlimit:4;stroke-dasharray:none"
       d="m 339.41126,302.82899 0,39.39595"
       id="path4647"
       inkscape:connector-curvature="0"
       inkscape:export-filename="/home/deepak/Desktop/temp.png"
       inkscape:export-xdpi="90"
       inkscape:export-ydpi="90" />
    <rect
       style="fill:#9f9f9f;fill-opacity:1;stroke:none"
       id="rect2985-2-4-5-2-9-2-4-5"
       width="468.02658"
       height="2.0860322"
       x="30.646669"
       y="402.47955"
       rx="0"
       ry="0"
       inkscape:export-filename="/home/deepak/Desktop/temp.png"
       inkscape:export-xdpi="90"
       inkscape:export-ydpi="90" />
    <rect
       style="opacity:0.60905349;fill:#ca31a7;fill-opacity:0.75686275;stroke:none"
       id="rect3236-8-5-2-8"
       width="165.1147"
       height="41.876083"
       x="52.996063"
       y="-424.97272"
       ry="0.38365048"
       inkscape:export-filename="/home/deepak/Desktop/temp.png"
       inkscape:export-xdpi="90"
       inkscape:export-ydpi="90"
       transform="scale(1,-1)" />
    <rect
       style="opacity:0.60905349;fill:#ca31a7;fill-opacity:0.75686275;stroke:none"
       id="rect3236-8-2-9-3-4"
       width="74.200974"
       height="41.876083"
       x="320.22821"
       y="-421.33417"
       ry="0.38365048"
       inkscape:export-filename="/home/deepak/Desktop/temp.png"
       inkscape:export-xdpi="90"
       inkscape:export-ydpi="90"
       transform="scale(1,-1)" />
    <rect
       style="opacity:0.60905349;fill:#ca31a7;fill-opacity:0.75686275;stroke:none"
       id="rect3236-8-2-5-5-7-5"
       width="74.200974"
       height="41.876083"
       x="411.14194"
       y="-423.33417"
       ry="0.38365048"
       inkscape:export-filename="/home/deepak/Desktop/temp.png"
       inkscape:export-xdpi="90"
       inkscape:export-ydpi="90"
       transform="scale(1,-1)" />
    <path
       style="fill:#000000;fill-opacity:0.75686275;stroke:none"
       id="path4553-0-7-3"
       d="m 127.7446,362.35339 c -5.24475,2.60886 -10.52289,5.14544 -15.83196,7.62093 -4.28512,2.04172 -8.75086,3.65301 -13.37137,4.73106 -2.01147,0.4683 -4.06788,0.57853 -6.12378,0.61317 -1.24315,0.0662 -2.33141,-0.48393 -3.2926,-1.21829 -0.91955,-0.64329 -1.30456,-1.66538 -1.50604,-2.72495 -0.22934,-1.16116 0.10551,-2.20835 0.78283,-3.13944 4.57313,-4.21833 9.44432,-6.16088 15.1355,-6.85546 1.89227,-0.22483 3.80591,-0.0766 5.63941,0.43433 1.73758,0.37735 3.33695,1.1724 5.01881,1.72259 1.75897,0.61452 3.52112,1.21649 5.20547,2.01905 2.0868,0.8665 4.12644,1.82758 6.26062,2.57754 1.93411,0.79357 3.90638,1.46286 5.87669,2.15235 1.73215,0.50968 3.33964,1.33145 5.07233,1.83622 1.63707,0.45845 3.25022,0.89474 4.94361,1.08903 1.79253,0.22364 3.56011,0.15319 5.34173,-0.0848 2.05182,-0.41793 4.04071,-1.06136 5.96826,-1.87374 3.26697,-1.74101 8.59878,-4.90396 -6.17485,3.58102 0,0 9.78092,-3.78533 9.78092,-3.78533 l 0,0 c -3.83254,2.22738 -7.69376,4.84851 -11.82627,6.66721 -1.99423,0.75269 -4.04348,1.3831 -6.16163,1.67238 -1.83909,0.17902 -3.68319,0.14807 -5.51537,-0.11287 -1.71734,-0.26743 -3.37235,-0.75307 -5.03881,-1.24012 -1.70941,-0.57517 -3.34892,-1.33571 -5.07456,-1.86712 -1.9758,-0.66229 -3.89685,-1.4556 -5.8437,-2.19832 -2.1437,-0.80537 -4.23423,-1.73415 -6.34635,-2.61713 -1.69388,-0.72853 -3.43864,-1.32721 -5.18413,-1.91937 -1.63244,-0.60443 -3.23891,-1.30545 -4.95925,-1.63254 -1.77991,-0.343 -3.57096,-0.45571 -5.37087,-0.15867 -1.11551,0.15471 -2.22083,0.32533 -3.30125,0.65602 -0.36522,0.11179 -1.40392,0.58425 -1.08072,0.38073 2.43817,-1.53535 11.17424,-6.66205 7.44147,-4.39798 -0.91178,0.36291 -1.30007,1.15921 -1.22211,2.12916 0.10638,0.82512 0.31958,1.53365 1.06999,1.99441 0.90024,0.55163 1.8243,0.79058 2.89097,0.69603 1.95348,-0.0287 3.90079,-0.22046 5.80809,-0.65998 4.48664,-1.0779 8.80797,-2.70254 12.97452,-4.68489 5.4385,-2.53987 10.83739,-5.1577 16.18068,-7.89274 0,0 -8.16628,6.49052 -8.16628,6.49052 z"
       inkscape:connector-curvature="0"
       inkscape:export-filename="/home/deepak/Desktop/temp.png"
       inkscape:export-xdpi="90"
       inkscape:export-ydpi="90" />
    <path
       style="fill:#000000;fill-opacity:0.75686275;stroke:none"
       id="path4559-0-7-2"
       d="m 443.59122,346.40478 c -2.23432,1.32717 -4.24133,2.97077 -5.92142,4.94942 -1.37025,1.60128 -1.85972,3.53434 -2.10339,5.57335 -0.0822,1.92599 0.2265,3.80737 0.96806,5.58144 0.71979,1.80876 2.02934,3.22509 3.56408,4.37725 1.7145,1.10103 2.93514,1.33612 4.91924,1.18603 1.64195,-0.14265 3.2139,-0.6993 4.76937,-1.2131 3.27527,-1.62441 7.99307,-4.47721 -6.98042,4.06952 -0.20769,0.11855 0.41342,-0.2411 0.61195,-0.37442 0.54754,-0.36766 0.55752,-0.41775 1.04106,-0.87974 0.86555,-0.86649 1.31394,-1.90075 1.52165,-3.08641 0.18058,-1.5328 0.14646,-3.08164 0.13993,-4.62237 -0.0948,-1.24187 -0.47567,-2.44626 -1.18112,-3.47361 -0.7017,-1.16424 -1.63767,-2.07255 -2.85029,-2.68016 -0.72893,-0.27395 -1.45783,-0.52596 -2.18263,-0.81655 0,0 8.79701,-5.89054 8.79701,-5.89054 l 0,0 c 0.74904,0.30303 1.53084,0.53519 2.22825,0.9533 1.27174,0.792 2.34077,1.80042 3.11528,3.09604 0.79523,1.2168 1.31568,2.5708 1.45865,4.02566 0.004,1.57746 0.0124,3.15556 -0.0446,4.73228 -0.12479,1.3582 -0.41335,2.58969 -1.26966,3.69346 -3.21491,3.82453 -8.11116,5.91637 -12.72737,7.70793 -1.59822,0.50794 -3.24548,0.93138 -4.93172,0.9589 -1.95614,-0.034 -3.71645,-0.61954 -5.29988,-1.79784 -1.6301,-1.29656 -3.0486,-2.88196 -3.83796,-4.83622 -0.83471,-1.93346 -1.20959,-3.93923 -1.22545,-6.04938 0.2102,-2.17631 0.55112,-4.34765 1.90364,-6.14481 0.37157,-0.4752 1.19534,-1.55512 1.6113,-1.97749 1.21839,-1.23718 2.68615,-2.24941 4.09102,-3.2547 0,0 9.81539,-3.80724 9.81539,-3.80724 z"
       inkscape:connector-curvature="0"
       inkscape:export-filename="/home/deepak/Desktop/temp.png"
       inkscape:export-xdpi="90"
       inkscape:export-ydpi="90" />
    <path
       style="fill:#000000;fill-opacity:0.75686275;stroke:none"
       id="path4561-4-3-8"
       d="m 471.19008,328.16754 c -4.36203,3.81964 -8.61352,7.7259 -12.59592,11.94316 -4.2194,4.59674 -8.27094,9.34564 -12.31044,14.10048 -2.75261,3.10609 -5.39634,6.30592 -8.11546,9.4407 -1.60526,1.75786 -3.11546,3.59959 -4.78089,5.30143 -1.17798,1.24031 -2.33189,2.502 -3.41716,3.82459 -0.70792,0.95062 -1.43902,1.88288 -2.18088,2.8071 0,0 -9.6837,4.11962 -9.6837,4.11962 l 0,0 c 0.76617,-0.9029 1.527,-1.81152 2.20909,-2.78092 1.02016,-1.40659 2.22157,-2.66016 3.37338,-3.95363 1.7367,-1.69475 3.32682,-3.51238 4.96287,-5.30357 2.80474,-3.15513 5.51827,-6.38987 8.34666,-9.52425 4.11034,-4.76844 8.2174,-9.54192 12.44756,-14.20474 3.82513,-4.14965 7.88328,-8.03334 12.1043,-11.7767 0,0 9.64059,-3.99327 9.64059,-3.99327 z"
       inkscape:connector-curvature="0"
       inkscape:export-filename="/home/deepak/Desktop/temp.png"
       inkscape:export-xdpi="90"
       inkscape:export-ydpi="90" />
    <path
       style="fill:#000000;fill-opacity:0.75686275;stroke:none"
       id="path4606-5-3"
       d="m 367.69093,351.26454 c -2.56076,2.19934 -4.86674,4.69044 -6.74431,7.49663 -1.31212,1.90945 -2.14246,3.99572 -2.54889,6.26318 -0.16826,1.87302 0.20935,3.56743 1.23554,5.12458 1.30058,1.56536 2.96769,2.35401 4.91147,2.78392 2.25208,0.46162 4.48279,-0.0955 6.71874,-0.38479 2.18826,-0.12761 4.28738,-0.9132 6.22983,-1.89348 -29.30183,14.30801 -12.63484,8.79765 -10.18849,5.32891 0.2524,-0.3579 0.3572,-0.68764 0.51717,-1.08842 0.33681,-1.43132 0.49981,-2.96183 0.0345,-4.37416 -0.54298,-1.64933 -1.86724,-2.55097 -3.45088,-3.08205 -2.29369,-0.75348 -4.29676,0.28181 -6.40529,1.03427 -0.37171,0.13616 -0.74341,0.27233 -1.11512,0.40849 0,0 11.72893,-9.15664 11.72893,-9.15664 l 0,0 c 0.36728,-0.1297 0.73456,-0.2594 1.10183,-0.3891 2.35717,-0.82962 4.69694,-1.17017 7.08474,-0.18152 1.85495,0.88554 3.42265,2.10187 4.13419,4.10725 0.6706,1.67846 0.62388,3.4002 0.42526,5.18194 -0.23028,1.29915 -0.66233,2.86432 -1.88906,3.58937 -4.52432,2.67408 -9.10551,5.25076 -13.65827,7.87614 -2.09446,0.80842 -4.22879,1.41304 -6.48525,1.54664 -2.36964,0.30354 -4.7402,0.59475 -7.08344,-0.0863 -2.1676,-0.71655 -4.06336,-1.85207 -5.48597,-3.68152 -1.2436,-1.87094 -1.73605,-3.84086 -1.74712,-6.09461 0.31043,-2.45263 0.97081,-4.78566 2.38155,-6.85619 1.74034,-2.95691 4.06902,-5.46666 6.49406,-7.87843 0,0 13.80428,-5.59414 13.80428,-5.59414 z"
       inkscape:connector-curvature="0"
       inkscape:export-filename="/home/deepak/Desktop/temp.png"
       inkscape:export-xdpi="90"
       inkscape:export-ydpi="90" />
    <path
       style="fill:none;stroke:#ff0000;stroke-width:4;stroke-linecap:butt;stroke-linejoin:miter;stroke-miterlimit:4;stroke-opacity:1;stroke-dasharray:none"
       d="m 341.43156,380.61074 0,39.39595"
       id="path4647-7"
       inkscape:connector-curvature="0"
       inkscape:export-filename="/home/deepak/Desktop/temp.png"
       inkscape:export-xdpi="90"
       inkscape:export-ydpi="90" />
    <path
       style="fill:none;stroke:#ff0000;stroke-width:4;stroke-linecap:butt;stroke-linejoin:miter;stroke-miterlimit:4;stroke-opacity:1;stroke-dasharray:none"
       d="m 352.54324,381.13613 0,39.39595"
       id="path4647-7-7"
       inkscape:connector-curvature="0"
       inkscape:export-filename="/home/deepak/Desktop/temp.png"
       inkscape:export-xdpi="90"
       inkscape:export-ydpi="90" />
    <path
       style="fill:none;stroke:#ff0000;stroke-width:4;stroke-linecap:butt;stroke-linejoin:miter;stroke-miterlimit:4;stroke-opacity:1;stroke-dasharray:none"
       d="m 176.77669,384.14627 0,39.39595"
       id="path4647-7-7-6"
       inkscape:connector-curvature="0"
       inkscape:export-filename="/home/deepak/Desktop/temp.png"
       inkscape:export-xdpi="90"
       inkscape:export-ydpi="90" />
    <rect
       style="fill:#9f9f9f;fill-opacity:1;stroke:none"
       id="rect2985-2-4-5-2-9-3"
       width="468.02658"
       height="2.0860322"
       x="45.555229"
       y="657.00464"
       rx="0"
       ry="0"
       inkscape:export-filename="/home/deepak/Desktop/temp.png"
       inkscape:export-xdpi="90"
       inkscape:export-ydpi="90" />
    <rect
       style="opacity:0.60905349;fill:#ca31a7;fill-opacity:0.75686275;stroke:none"
       id="rect3236-8-9"
       width="165.1147"
       height="41.876083"
       x="67.904594"
       y="-679.4978"
       ry="0.38365048"
       inkscape:export-filename="/home/deepak/Desktop/temp.png"
       inkscape:export-xdpi="90"
       inkscape:export-ydpi="90"
       transform="scale(1,-1)" />
    <rect
       style="opacity:0.60905349;fill:#ca31a7;fill-opacity:0.75686275;stroke:none"
       id="rect3236-8-2-1"
       width="74.200974"
       height="41.876083"
       x="267.45654"
       y="-678.88977"
       ry="0.38365048"
       inkscape:export-filename="/home/deepak/Desktop/temp.png"
       inkscape:export-xdpi="90"
       inkscape:export-ydpi="90"
       transform="scale(1,-1)" />
    <rect
       style="opacity:0.60905349;fill:#ca31a7;fill-opacity:0.75686275;stroke:none"
       id="rect3236-8-2-5-6"
       width="74.200974"
       height="41.876083"
       x="426.05054"
       y="-677.85931"
       ry="0.38365048"
       inkscape:export-filename="/home/deepak/Desktop/temp.png"
       inkscape:export-xdpi="90"
       inkscape:export-ydpi="90"
       transform="scale(1,-1)" />
    <path
       style="fill:#000000;fill-opacity:0.75686275;stroke:none"
       id="path4553-2"
       d="m 142.65318,616.87849 c -5.24475,2.60887 -10.52289,5.14544 -15.83196,7.62094 -4.28511,2.04171 -8.75085,3.653 -13.37136,4.73105 -2.01147,0.4683 -4.06788,0.57853 -6.12377,0.61318 -1.24316,0.0662 -2.33142,-0.48394 -3.29261,-1.2183 -0.91955,-0.64329 -1.30455,-1.66538 -1.50604,-2.72495 -0.22933,-1.16116 0.10551,-2.20835 0.78284,-3.13944 4.57313,-4.21833 9.44432,-6.16088 15.13549,-6.85546 1.89227,-0.22483 3.80591,-0.0766 5.6394,0.43434 1.73758,0.37734 3.33695,1.17239 5.01881,1.72258 1.75897,0.61452 3.52112,1.21649 5.20547,2.01906 2.0868,0.86649 4.12644,1.82757 6.26062,2.57753 1.93411,0.79357 3.90638,1.46286 5.87669,2.15235 1.73215,0.50968 3.33964,1.33145 5.07233,1.83623 1.63707,0.45844 3.25022,0.89473 4.94361,1.08903 1.79253,0.22363 3.56011,0.15318 5.34173,-0.0848 2.05182,-0.41794 4.04071,-1.06137 5.96826,-1.87375 3.26697,-1.74101 8.59878,-4.90396 -6.17485,3.58102 0,0 9.78092,-3.78533 9.78092,-3.78533 l 0,0 c -3.83254,2.22738 -7.69376,4.84852 -11.82627,6.66721 -1.99423,0.75269 -4.04348,1.3831 -6.16163,1.67238 -1.83909,0.17902 -3.68319,0.14807 -5.51537,-0.11287 -1.71734,-0.26743 -3.37235,-0.75307 -5.03881,-1.24012 -1.70941,-0.57516 -3.34892,-1.33571 -5.07456,-1.86712 -1.9758,-0.66229 -3.89685,-1.4556 -5.8437,-2.19832 -2.1437,-0.80537 -4.23423,-1.73415 -6.34635,-2.61713 -1.69388,-0.72852 -3.43863,-1.32721 -5.18411,-1.91937 -1.63244,-0.60443 -3.23891,-1.30545 -4.95926,-1.63254 -1.7799,-0.343 -3.57096,-0.45571 -5.37087,-0.15867 -1.11551,0.15471 -2.22083,0.32533 -3.30124,0.65602 -0.36522,0.11179 -1.40393,0.58425 -1.08073,0.38073 2.43817,-1.53535 11.17424,-6.66205 7.44147,-4.39798 -0.91177,0.36291 -1.30006,1.15921 -1.2221,2.12917 0.10637,0.82512 0.31958,1.53365 1.06999,1.9944 0.90024,0.55164 1.8243,0.79058 2.89096,0.69603 1.95348,-0.0287 3.9008,-0.22045 5.80809,-0.65998 4.48663,-1.07789 8.80796,-2.70254 12.97451,-4.68489 5.4385,-2.53987 10.83739,-5.15769 16.18068,-7.89274 0,0 -8.16628,6.49052 -8.16628,6.49052 z"
       inkscape:connector-curvature="0"
       inkscape:export-filename="/home/deepak/Desktop/temp.png"
       inkscape:export-xdpi="90"
       inkscape:export-ydpi="90" />
    <path
       style="fill:#000000;fill-opacity:0.75686275;stroke:none"
       id="path4557-1"
       d="m 277.85031,628.1572 c 2.32809,-2.12242 4.69178,-4.20854 6.93088,-6.42559 2.04698,-1.93042 3.95375,-3.99305 5.83774,-6.08007 3.63497,-4.25436 8.21685,-5.96823 13.29379,-8.8622 1.33508,-0.48609 2.34755,0.0478 3.05492,1.19177 0.59736,1.31034 0.50962,2.76737 0.63986,4.16727 0.13944,1.81956 0.61715,3.56185 1.11959,5.30552 0.47382,1.40843 0.83891,2.88409 1.58965,4.17587 0.6749,0.81118 1.6489,1.29609 2.6974,1.07823 0.216,-0.0325 0.4356,-0.0464 0.6479,-0.0974 0.8039,-0.19303 1.4855,-0.60249 2.1845,-1.0243 0.2808,-0.16943 1.127,-0.67101 0.8421,-0.50858 -2.6921,1.53504 -5.376,3.08436 -8.06398,4.62654 1.83628,-1.2237 3.52248,-2.65818 5.23528,-4.04631 1.6574,-1.40214 3.2388,-2.87639 5.0076,-4.13968 4.2954,-2.93898 8.5518,-6.27782 13.7718,-6.75225 1.619,-0.0146 2.7318,0.90167 4.0045,1.74565 1.3083,0.96135 2.2393,2.31707 3.4235,3.40099 1.4298,1.44241 3.0534,2.14053 5.0608,2.29154 1.5627,-0.13418 0.7939,-0.0423 2.3071,-0.27202 0,0 -8.384,6.23733 -8.384,6.23733 l 0,0 c -1.5849,0.12086 -0.7678,0.0951 -2.452,0.0638 -2.141,-0.38655 -3.9466,-1.23243 -5.4886,-2.80092 -1.1048,-1.08582 -2.0651,-2.33122 -3.3423,-3.23497 -1.1242,-0.74617 -2.1704,-1.35493 -3.5777,-1.12507 -0.7431,0.12704 -1.4578,0.27269 -2.1616,0.55425 -0.2541,0.10166 -0.9831,0.47874 -0.7479,0.33868 4.6273,-2.75631 11.3277,-6.55016 7.3306,-4.28432 -1.7985,1.22954 -3.4719,2.57106 -5.0554,4.0726 -1.7032,1.41074 -3.4233,2.80365 -5.1746,4.15283 -3.2805,1.92225 -6.5562,3.85249 -9.84136,5.76675 -1.26553,0.73743 -2.60356,1.28826 -4.09448,1.24628 -1.34561,-0.2362 -2.46973,-0.87206 -3.2712,-2.00938 -0.79228,-1.36945 -1.19262,-2.92492 -1.65615,-4.42913 -0.5312,-1.78864 -1.05282,-3.57532 -1.22921,-5.44304 -0.18011,-1.2361 -0.0865,-2.51933 -0.48367,-3.71527 -0.51722,-0.77104 -1.46663,-0.27108 -2.13118,0.0594 2.79934,-1.62395 5.60769,-3.23246 8.39801,-4.87184 0.24105,-0.14162 -0.50848,0.23496 -0.74884,0.37777 -1.18179,0.70218 -2.15578,1.73547 -3.08803,2.72636 -1.91991,2.09816 -3.79556,4.23861 -5.90414,6.1535 -2.15367,2.2367 -4.55244,4.21304 -6.72008,6.43371 0,0 -9.7611,3.95565 -9.7611,3.95565 z"
       inkscape:connector-curvature="0"
       inkscape:export-filename="/home/deepak/Desktop/temp.png"
       inkscape:export-xdpi="90"
       inkscape:export-ydpi="90" />
    <path
       style="fill:#000000;fill-opacity:0.75686275;stroke:none"
       id="path4559-5"
       d="m 458.49984,600.92988 c -2.2344,1.32718 -4.2414,2.97077 -5.9215,4.94942 -1.3702,1.60128 -1.8597,3.53435 -2.1034,5.57336 -0.082,1.92599 0.2265,3.80736 0.9681,5.58143 0.7198,1.80877 2.0293,3.2251 3.5641,4.37725 1.7145,1.10103 2.9351,1.33613 4.9192,1.18603 1.642,-0.14265 3.2139,-0.69929 4.7694,-1.2131 3.2753,-1.62441 7.9931,-4.47721 -6.9804,4.06952 -0.2077,0.11855 0.4134,-0.2411 0.6119,-0.37441 0.5476,-0.36767 0.5575,-0.41776 1.0411,-0.87974 0.8655,-0.8665 1.3139,-1.90076 1.5216,-3.08642 0.1806,-1.5328 0.1465,-3.08164 0.14,-4.62236 -0.095,-1.24188 -0.4757,-2.44627 -1.1812,-3.47361 -0.7017,-1.16425 -1.6376,-2.07256 -2.8502,-2.68017 -0.729,-0.27395 -1.4579,-0.52595 -2.1827,-0.81655 0,0 8.797,-5.89053 8.797,-5.89053 l 0,0 c 0.7491,0.30303 1.5309,0.53518 2.2283,0.9533 1.2717,0.79199 2.3408,1.80042 3.1153,3.09603 0.7952,1.21681 1.3156,2.5708 1.4586,4.02567 0,1.57745 0.012,3.15555 -0.045,4.73227 -0.1248,1.3582 -0.4133,2.58969 -1.2696,3.69347 -3.215,3.82452 -8.1112,5.91636 -12.7274,7.70792 -1.5982,0.50795 -3.2455,0.93138 -4.9317,0.9589 -1.9562,-0.034 -3.7165,-0.61954 -5.2999,-1.79784 -1.6301,-1.29655 -3.0486,-2.88196 -3.838,-4.83622 -0.8347,-1.93346 -1.2096,-3.93922 -1.2254,-6.04937 0.2102,-2.17632 0.5511,-4.34765 1.9036,-6.14482 0.3716,-0.4752 1.1954,-1.55512 1.6113,-1.97749 1.2184,-1.23718 2.6862,-2.24941 4.091,-3.2547 0,0 9.8154,-3.80724 9.8154,-3.80724 z"
       inkscape:connector-curvature="0"
       inkscape:export-filename="/home/deepak/Desktop/temp.png"
       inkscape:export-xdpi="90"
       inkscape:export-ydpi="90" />
    <path
       style="fill:#000000;fill-opacity:0.75686275;stroke:none"
       id="path4561-6"
       d="m 486.09864,582.69265 c -4.362,3.81963 -8.6135,7.72589 -12.5959,11.94315 -4.2194,4.59675 -8.2709,9.34564 -12.3104,14.10048 -2.7527,3.10609 -5.3964,6.30593 -8.1155,9.4407 -1.6053,1.75787 -3.1155,3.59959 -4.7809,5.30143 -1.178,1.24031 -2.3319,2.502 -3.4172,3.82459 -0.7079,0.95062 -1.439,1.88288 -2.1808,2.8071 0,0 -9.6837,4.11963 -9.6837,4.11963 l 0,0 c 0.7661,-0.90291 1.527,-1.81153 2.2091,-2.78093 1.0201,-1.40658 2.2215,-2.66016 3.3733,-3.95363 1.7367,-1.69475 3.3269,-3.51238 4.9629,-5.30356 2.8047,-3.15514 5.5183,-6.38988 8.3467,-9.52426 4.1103,-4.76843 8.2174,-9.54192 12.4475,-14.20473 3.8252,-4.14965 7.8833,-8.03335 12.1043,-11.77671 0,0 9.6406,-3.99326 9.6406,-3.99326 z"
       inkscape:connector-curvature="0"
       inkscape:export-filename="/home/deepak/Desktop/temp.png"
       inkscape:export-xdpi="90"
       inkscape:export-ydpi="90" />
    <rect
       style="fill:#ebebeb;fill-opacity:0.75686275;stroke:none"
       id="rect4889"
       width="471.42856"
       height="47.142857"
       x="43.975151"
       y="709.84021"
       ry="0.38365048"
       inkscape:export-filename="/home/deepak/Desktop/temp.png"
       inkscape:export-xdpi="90"
       inkscape:export-ydpi="90" />
    <path
       style="fill:none;stroke:#000000;stroke-width:1px;stroke-linecap:butt;stroke-linejoin:miter;stroke-opacity:1"
       d="m 56.832306,722.69737 121.428564,0"
       id="path4883"
       inkscape:connector-curvature="0"
       inkscape:export-filename="/home/deepak/Desktop/temp.png"
       inkscape:export-xdpi="90"
       inkscape:export-ydpi="90" />
    <path
       style="fill:none;stroke:#000000;stroke-width:1px;stroke-linecap:butt;stroke-linejoin:miter;stroke-opacity:1"
       d="m 306.8323,728.41165 197.14284,0"
       id="path4885"
       inkscape:connector-curvature="0"
       inkscape:export-filename="/home/deepak/Desktop/temp.png"
       inkscape:export-xdpi="90"
       inkscape:export-ydpi="90" />
    <path
       style="fill:none;stroke:#000000;stroke-width:1;stroke-linecap:butt;stroke-linejoin:miter;stroke-miterlimit:4;stroke-opacity:1;stroke-dasharray:6, 6;stroke-dashoffset:0"
       d="m 156.8323,744.12594 174.28574,0"
       id="path4887"
       inkscape:connector-curvature="0"
       inkscape:export-filename="/home/deepak/Desktop/temp.png"
       inkscape:export-xdpi="90"
       inkscape:export-ydpi="90" />
    <rect
       style="fill:#ebebeb;fill-opacity:0.75686275;stroke:none"
       id="rect4889-7"
       width="471.42856"
       height="47.142857"
       x="46.832268"
       y="770.5545"
       ry="0.38365048"
       inkscape:export-filename="/home/deepak/Desktop/temp.png"
       inkscape:export-xdpi="90"
       inkscape:export-ydpi="90" />
    <path
       style="fill:none;stroke:#000000;stroke-width:1px;stroke-linecap:butt;stroke-linejoin:miter;stroke-opacity:1"
       d="m 59.689476,783.41166 121.428594,0"
       id="path4883-8"
       inkscape:connector-curvature="0"
       inkscape:export-filename="/home/deepak/Desktop/temp.png"
       inkscape:export-xdpi="90"
       inkscape:export-ydpi="90" />
    <path
       style="fill:none;stroke:#000000;stroke-width:1px;stroke-linecap:butt;stroke-linejoin:miter;stroke-opacity:1"
       d="m 439.68944,789.12594 67.1428,0"
       id="path4885-9"
       inkscape:connector-curvature="0"
       sodipodi:nodetypes="cc"
       inkscape:export-filename="/home/deepak/Desktop/temp.png"
       inkscape:export-xdpi="90"
       inkscape:export-ydpi="90" />
    <path
       style="fill:none;stroke:#000000;stroke-width:1;stroke-linecap:butt;stroke-linejoin:miter;stroke-miterlimit:4;stroke-opacity:1;stroke-dasharray:6, 6;stroke-dashoffset:0"
       d="m 251.11804,804.84023 61.4285,0"
       id="path4887-2"
       inkscape:connector-curvature="0"
       sodipodi:nodetypes="cc"
       inkscape:export-filename="/home/deepak/Desktop/temp.png"
       inkscape:export-xdpi="90"
       inkscape:export-ydpi="90" />
    <path
       style="fill:none;stroke:#000000;stroke-width:1px;stroke-linecap:butt;stroke-linejoin:miter;stroke-opacity:1"
       d="m 385.40374,795.55451 67.1428,0"
       id="path4885-9-2"
       inkscape:connector-curvature="0"
       sodipodi:nodetypes="cc"
       inkscape:export-filename="/home/deepak/Desktop/temp.png"
       inkscape:export-xdpi="90"
       inkscape:export-ydpi="90" />
    <path
       style="fill:none;stroke:#000000;stroke-width:1px;stroke-linecap:butt;stroke-linejoin:miter;stroke-opacity:1"
       d="m 300.40374,781.26879 87.1428,0"
       id="path4885-9-2-7"
       inkscape:connector-curvature="0"
       sodipodi:nodetypes="cc"
       inkscape:export-filename="/home/deepak/Desktop/temp.png"
       inkscape:export-xdpi="90"
       inkscape:export-ydpi="90" />
    <path
       style="fill:none;stroke:#000000;stroke-width:1px;stroke-linecap:butt;stroke-linejoin:miter;stroke-opacity:1"
       d="m 160.40375,789.84022 87.1428,0"
       id="path4885-9-2-7-0"
       inkscape:connector-curvature="0"
       sodipodi:nodetypes="cc"
       inkscape:export-filename="/home/deepak/Desktop/temp.png"
       inkscape:export-xdpi="90"
       inkscape:export-ydpi="90" />
    <rect
       style="fill:#ebebeb;fill-opacity:0.75686275;stroke:none"
       id="rect4889-7-1"
       width="471.42856"
       height="47.142857"
       x="46.832329"
       y="833.41162"
       ry="0.38365048"
       inkscape:export-filename="/home/deepak/Desktop/temp.png"
       inkscape:export-xdpi="90"
       inkscape:export-ydpi="90" />
    <path
       style="fill:none;stroke:#000000;stroke-width:1px;stroke-linecap:butt;stroke-linejoin:miter;stroke-opacity:1"
       d="m 59.689536,846.2688 35.71431,0"
       id="path4883-8-4"
       inkscape:connector-curvature="0"
       sodipodi:nodetypes="cc"
       inkscape:export-filename="/home/deepak/Desktop/temp.png"
       inkscape:export-xdpi="90"
       inkscape:export-ydpi="90" />
    <path
       style="fill:none;stroke:#000000;stroke-width:1;stroke-linecap:butt;stroke-linejoin:miter;stroke-miterlimit:4;stroke-opacity:1;stroke-dasharray:6, 6;stroke-dashoffset:0"
       d="m 217.5467,866.98308 103.57134,0"
       id="path4887-2-7"
       inkscape:connector-curvature="0"
       sodipodi:nodetypes="cc"
       inkscape:export-filename="/home/deepak/Desktop/temp.png"
       inkscape:export-xdpi="90"
       inkscape:export-ydpi="90" />
    <path
       style="fill:none;stroke:#000000;stroke-width:1px;stroke-linecap:butt;stroke-linejoin:miter;stroke-opacity:1"
       d="m 160.40383,852.69736 53.57137,0"
       id="path4885-9-2-7-0-8"
       inkscape:connector-curvature="0"
       sodipodi:nodetypes="cc"
       inkscape:export-filename="/home/deepak/Desktop/temp.png"
       inkscape:export-xdpi="90"
       inkscape:export-ydpi="90" />
    <path
       style="fill:none;stroke:#000000;stroke-width:1px;stroke-linecap:butt;stroke-linejoin:miter;stroke-opacity:1"
       d="m 79.689436,861.2688 88.571444,0"
       id="path4883-8-4-4"
       inkscape:connector-curvature="0"
       sodipodi:nodetypes="cc"
       inkscape:export-filename="/home/deepak/Desktop/temp.png"
       inkscape:export-xdpi="90"
       inkscape:export-ydpi="90" />
    <path
       style="fill:none;stroke:#000000;stroke-width:1px;stroke-linecap:butt;stroke-linejoin:miter;stroke-opacity:1"
       d="m 313.26094,845.55451 197.1428,0"
       id="path4885-3"
       inkscape:connector-curvature="0"
       inkscape:export-filename="/home/deepak/Desktop/temp.png"
       inkscape:export-xdpi="90"
       inkscape:export-ydpi="90" />
    <rect
       style="fill:#ffffff;fill-opacity:0.75686275;stroke:#287eac;stroke-width:1.98272145;stroke-miterlimit:4;stroke-opacity:1;stroke-dasharray:none"
       id="rect5044"
       width="20.028511"
       height="20.028511"
       x="641.77863"
       y="10.107461"
       ry="0.25355735"
       inkscape:export-filename="/home/deepak/Desktop/temp.png"
       inkscape:export-xdpi="90"
       inkscape:export-ydpi="90" />
    <path
       style="fill:#000000;fill-opacity:0.75686275;stroke:none"
       d="m 647.97496,16.217878 c 1.43891,2.255112 1.73883,9.883094 4.29845,7.490001 0.57927,-0.513461 -0.38016,0.406642 0.75142,-0.735392 0.52263,-0.530729 1.23572,-1.239178 0.28212,-0.280146 4.85518,-4.949487 9.81096,-9.990942 15.32384,-12.304174 -1.45372,3.073238 -4.00369,2.768736 -5.9043,4.537281 -2.7593,1.935986 -5.37677,4.422903 -7.96905,6.95429 0.82362,-0.88398 1.66116,-1.677024 0.26668,-0.265068 -1.98042,1.400652 -3.71815,5.036334 -5.88381,4.920755 -1.30683,-2.236759 -1.93847,-5.655981 -2.79043,-8.380985 0.28989,-1.012303 1.13425,-1.207704 1.62508,-1.936562 z"
       id="path5046"
       inkscape:connector-curvature="0"
       inkscape:export-filename="/home/deepak/Desktop/temp.png"
       inkscape:export-xdpi="90"
       inkscape:export-ydpi="90" />
    <text
       xml:space="preserve"
       style="font-size:15.32385063px;font-style:normal;font-weight:normal;line-height:125%;letter-spacing:0px;word-spacing:0px;fill:#000000;fill-opacity:1;stroke:none;font-family:Sans"
       x="529.52057"
       y="26.148735"
       id="text5073"
       sodipodi:linespacing="125%"
       transform="scale(1.0277578,0.97299187)"
       inkscape:export-filename="/home/deepak/Desktop/temp.png"
       inkscape:export-xdpi="90"
       inkscape:export-ydpi="90"><tspan
         sodipodi:role="line"
         id="tspan5075"
         x="529.52057"
         y="26.148735">Built?</tspan><tspan
         sodipodi:role="line"
         x="529.52057"
         y="45.303551"
         id="tspan5087">Cost</tspan><tspan
         sodipodi:role="line"
         x="529.52057"
         y="64.458359"
         id="tspan5083">Cell health</tspan></text>
    <text
       xml:space="preserve"
       style="font-size:40px;font-style:normal;font-weight:normal;line-height:125%;letter-spacing:0px;word-spacing:0px;fill:#000000;fill-opacity:1;stroke:none;font-family:Sans"
       x="604.28571"
       y="50.219322"
       id="text5077"
       sodipodi:linespacing="125%"><tspan
         sodipodi:role="line"
         id="tspan5079"
         x="604.28571"
         y="50.219322" /></text>
    <rect
       style="fill:#d4b045;fill-opacity:0.75686276;stroke:none"
       id="rect5089"
       width="122.22845"
       height="11.111678"
       x="639.93164"
       y="33.623341"
       ry="0.38365048"
       inkscape:export-filename="/home/deepak/Desktop/temp.png"
       inkscape:export-xdpi="90"
       inkscape:export-ydpi="90" />
    <rect
       style="fill:#4bd445;fill-opacity:0.75686276;stroke:none"
       id="rect5089-5"
       width="140.41119"
       height="11.111678"
       x="640.43677"
       y="51.30101"
       ry="0.38365048"
       inkscape:export-filename="/home/deepak/Desktop/temp.png"
       inkscape:export-xdpi="90"
       inkscape:export-ydpi="90" />
    <rect
       style="fill:#ffffff;fill-opacity:0.75686275;stroke:#287eac;stroke-width:1.98272145;stroke-miterlimit:4;stroke-opacity:1;stroke-dasharray:none"
       id="rect5044-9"
       width="20.028511"
       height="20.028511"
       x="635.90729"
       y="211.75926"
       ry="0.25355735"
       inkscape:export-filename="/home/deepak/Desktop/temp.png"
       inkscape:export-xdpi="90"
       inkscape:export-ydpi="90" />
    <path
       style="fill:#000000;fill-opacity:0.75686275;stroke:none"
       d="m 642.10358,217.86969 c 1.43891,2.25511 1.73883,9.88309 4.29845,7.49 0.57927,-0.51346 -0.38016,0.40664 0.75142,-0.73539 0.52263,-0.53073 1.23572,-1.23918 0.28212,-0.28015 4.85518,-4.94949 9.81096,-9.99094 15.32384,-12.30417 -1.45372,3.07323 -4.00369,2.76873 -5.9043,4.53728 -2.7593,1.93598 -5.37677,4.4229 -7.96905,6.95429 0.82362,-0.88398 1.66116,-1.67703 0.26668,-0.26507 -1.98042,1.40065 -3.71815,5.03633 -5.88381,4.92075 -1.30683,-2.23676 -1.93847,-5.65598 -2.79043,-8.38098 0.28989,-1.0123 1.13425,-1.20771 1.62508,-1.93656 z"
       id="path5046-3"
       inkscape:connector-curvature="0"
       inkscape:export-filename="/home/deepak/Desktop/temp.png"
       inkscape:export-xdpi="90"
       inkscape:export-ydpi="90" />
    <text
       xml:space="preserve"
       style="font-size:15.32385063px;font-style:normal;font-weight:normal;line-height:125%;letter-spacing:0px;word-spacing:0px;fill:#000000;fill-opacity:1;stroke:none;font-family:Sans"
       x="523.80774"
       y="233.39796"
       id="text5073-4"
       sodipodi:linespacing="125%"
       transform="scale(1.0277578,0.97299188)"
       inkscape:export-filename="/home/deepak/Desktop/temp.png"
       inkscape:export-xdpi="90"
       inkscape:export-ydpi="90"><tspan
         sodipodi:role="line"
         id="tspan5075-2"
         x="523.80774"
         y="233.39796">Built?</tspan><tspan
         sodipodi:role="line"
         x="523.80774"
         y="252.55278"
         id="tspan5087-8">Cost</tspan><tspan
         sodipodi:role="line"
         x="523.80774"
         y="271.70758"
         id="tspan5083-3">Cell health</tspan></text>
    <rect
       style="fill:#4573d4;fill-opacity:0.75686275;stroke:none"
       id="rect5089-6"
       width="54.043152"
       height="11.111678"
       x="634.0603"
       y="235.27515"
       ry="0.38365048"
       inkscape:export-filename="/home/deepak/Desktop/temp.png"
       inkscape:export-xdpi="90"
       inkscape:export-ydpi="90" />
    <rect
       style="fill:#f5170d;fill-opacity:0.75686276;stroke:none"
       id="rect5089-5-1"
       width="29.294415"
       height="11.111678"
       x="634.56543"
       y="252.95282"
       ry="0.38365048"
       inkscape:export-filename="/home/deepak/Desktop/temp.png"
       inkscape:export-xdpi="90"
       inkscape:export-ydpi="90" />
    <rect
       style="fill:#ffffff;fill-opacity:0.75686275;stroke:#287eac;stroke-width:1.98272145;stroke-miterlimit:4;stroke-opacity:1;stroke-dasharray:none"
       id="rect5044-9-4"
       width="20.028511"
       height="20.028511"
       x="635.40222"
       y="292.57144"
       ry="0.25355735"
       inkscape:export-filename="/home/deepak/Desktop/temp.png"
       inkscape:export-xdpi="90"
       inkscape:export-ydpi="90" />
    <text
       xml:space="preserve"
       style="font-size:15.32385063px;font-style:normal;font-weight:normal;line-height:125%;letter-spacing:0px;word-spacing:0px;fill:#000000;fill-opacity:1;stroke:none;font-family:Sans"
       x="523.31635"
       y="316.45334"
       id="text5073-4-0"
       sodipodi:linespacing="125%"
       transform="scale(1.0277578,0.97299188)"
       inkscape:export-filename="/home/deepak/Desktop/temp.png"
       inkscape:export-xdpi="90"
       inkscape:export-ydpi="90"><tspan
         sodipodi:role="line"
         id="tspan5075-2-1"
         x="523.31635"
         y="316.45334">Built?</tspan><tspan
         sodipodi:role="line"
         x="523.31635"
         y="335.60815"
         id="tspan5087-8-1">Cost</tspan><tspan
         sodipodi:role="line"
         x="523.31635"
         y="354.76297"
         id="tspan5083-3-9">Cell health</tspan></text>
    <rect
       style="fill:#ffffff;fill-opacity:0.75686275;stroke:#287eac;stroke-width:1.98272145;stroke-miterlimit:4;stroke-opacity:1;stroke-dasharray:none"
       id="rect5044-9-4-8"
       width="20.028511"
       height="20.028511"
       x="635.90729"
       y="374.89886"
       ry="0.25355735"
       inkscape:export-filename="/home/deepak/Desktop/temp.png"
       inkscape:export-xdpi="90"
       inkscape:export-ydpi="90" />
    <text
       xml:space="preserve"
       style="font-size:15.32385063px;font-style:normal;font-weight:normal;line-height:125%;letter-spacing:0px;word-spacing:0px;fill:#000000;fill-opacity:1;stroke:none;font-family:Sans"
       x="523.8078"
       y="401.06601"
       id="text5073-4-0-7"
       sodipodi:linespacing="125%"
       transform="scale(1.0277578,0.97299188)"
       inkscape:export-filename="/home/deepak/Desktop/temp.png"
       inkscape:export-xdpi="90"
       inkscape:export-ydpi="90"><tspan
         sodipodi:role="line"
         id="tspan5075-2-1-2"
         x="523.8078"
         y="401.06601">Built?</tspan><tspan
         sodipodi:role="line"
         x="523.8078"
         y="420.22083"
         id="tspan5087-8-1-1">Cost</tspan><tspan
         sodipodi:role="line"
         x="523.8078"
         y="439.37564"
         id="tspan5083-3-9-4">Cell health</tspan></text>
    <rect
       style="fill:#9f9f9f;fill-opacity:1;stroke:none"
       id="rect2985-2-4-5-2-9-2-4-5-9"
       width="48.026592"
       height="2.0860291"
       x="31.145472"
       y="484.04077"
       rx="0"
       ry="0"
       inkscape:export-filename="/home/deepak/Desktop/temp.png"
       inkscape:export-xdpi="90"
       inkscape:export-ydpi="90" />
    <rect
       style="opacity:0.60905349;fill:#ca31a7;fill-opacity:0.75686275;stroke:none"
       id="rect3236-8-5-2-8-0"
       width="165.1147"
       height="41.876083"
       x="139.20915"
       y="-501.53394"
       ry="0.38365048"
       inkscape:export-filename="/home/deepak/Desktop/temp.png"
       inkscape:export-xdpi="90"
       inkscape:export-ydpi="90"
       transform="scale(1,-1)" />
    <rect
       style="opacity:0.60905349;fill:#ca31a7;fill-opacity:0.75686275;stroke:none"
       id="rect3236-8-2-9-3-4-1"
       width="74.200974"
       height="41.876083"
       x="320.72699"
       y="-502.89539"
       ry="0.38365048"
       inkscape:export-filename="/home/deepak/Desktop/temp.png"
       inkscape:export-xdpi="90"
       inkscape:export-ydpi="90"
       transform="scale(1,-1)" />
    <rect
       style="opacity:0.60905349;fill:#ca31a7;fill-opacity:0.75686275;stroke:none"
       id="rect3236-8-2-5-5-7-5-4"
       width="74.200974"
       height="41.876083"
       x="411.64075"
       y="-504.89539"
       ry="0.38365048"
       inkscape:export-filename="/home/deepak/Desktop/temp.png"
       inkscape:export-xdpi="90"
       inkscape:export-ydpi="90"
       transform="scale(1,-1)" />
    <path
       style="fill:#000000;fill-opacity:0.75686275;stroke:none"
       id="path4553-0-7-3-3"
       d="m 213.95769,438.91463 c -5.24475,2.60886 -10.52289,5.14544 -15.83196,7.62093 -4.28512,2.04172 -8.75086,3.65301 -13.37137,4.73106 -2.01147,0.4683 -4.06788,0.57853 -6.12378,0.61317 -1.24315,0.0662 -2.33141,-0.48393 -3.2926,-1.21829 -0.91955,-0.64329 -1.30456,-1.66538 -1.50604,-2.72495 -0.22934,-1.16116 0.10551,-2.20835 0.78283,-3.13944 4.57313,-4.21833 9.44432,-6.16088 15.1355,-6.85546 1.89227,-0.22483 3.80591,-0.0766 5.63941,0.43433 1.73758,0.37735 3.33695,1.1724 5.01881,1.72259 1.75897,0.61452 3.52112,1.21649 5.20547,2.01905 2.0868,0.8665 4.12644,1.82758 6.26062,2.57754 1.93411,0.79357 3.90638,1.46286 5.87668,2.15235 1.73215,0.50968 3.33964,1.33145 5.07233,1.83622 1.63707,0.45845 3.25022,0.89474 4.94361,1.08903 1.79253,0.22364 3.56011,0.15319 5.34173,-0.0848 2.05182,-0.41793 4.04071,-1.06136 5.96826,-1.87374 3.26697,-1.74101 8.59878,-4.90396 -6.17485,3.58102 0,0 9.78092,-3.78533 9.78092,-3.78533 l 0,0 c -3.83254,2.22738 -7.69376,4.84851 -11.82627,6.66721 -1.99423,0.75269 -4.04348,1.3831 -6.16163,1.67238 -1.83909,0.17902 -3.68319,0.14807 -5.51537,-0.11287 -1.71734,-0.26743 -3.37234,-0.75307 -5.0388,-1.24012 -1.70941,-0.57517 -3.34892,-1.33571 -5.07456,-1.86712 -1.9758,-0.66229 -3.89685,-1.4556 -5.8437,-2.19832 -2.1437,-0.80537 -4.23423,-1.73415 -6.34635,-2.61713 -1.69388,-0.72853 -3.43864,-1.32721 -5.18413,-1.91937 -1.63244,-0.60443 -3.23891,-1.30545 -4.95925,-1.63254 -1.77991,-0.343 -3.57096,-0.45571 -5.37087,-0.15867 -1.11551,0.15471 -2.22083,0.32533 -3.30125,0.65602 -0.36522,0.11179 -1.40392,0.58425 -1.08072,0.38073 2.43817,-1.53535 11.17424,-6.66205 7.44147,-4.39798 -0.91178,0.36291 -1.30007,1.15921 -1.22211,2.12916 0.10638,0.82512 0.31958,1.53365 1.06999,1.99441 0.90024,0.55163 1.8243,0.79058 2.89097,0.69603 1.95348,-0.0287 3.90079,-0.22046 5.80809,-0.65998 4.48664,-1.0779 8.80797,-2.70254 12.97452,-4.68489 5.4385,-2.53987 10.83739,-5.1577 16.18067,-7.89274 0,0 -8.16627,6.49052 -8.16627,6.49052 z"
       inkscape:connector-curvature="0"
       inkscape:export-filename="/home/deepak/Desktop/temp.png"
       inkscape:export-xdpi="90"
       inkscape:export-ydpi="90" />
    <path
       style="fill:#000000;fill-opacity:0.75686275;stroke:none"
       id="path4559-0-7-2-6"
       d="m 444.09001,427.96602 c -2.23432,1.32717 -4.24133,2.97077 -5.92142,4.94942 -1.37025,1.60128 -1.85972,3.53434 -2.10339,5.57335 -0.0822,1.92599 0.2265,3.80737 0.96806,5.58144 0.71979,1.80876 2.02934,3.22509 3.56408,4.37725 1.7145,1.10103 2.93514,1.33612 4.91924,1.18603 1.64195,-0.14265 3.2139,-0.6993 4.76937,-1.2131 3.27527,-1.62441 7.99307,-4.47721 -6.98042,4.06952 -0.20769,0.11855 0.41342,-0.2411 0.61195,-0.37442 0.54754,-0.36766 0.55752,-0.41775 1.04106,-0.87974 0.86555,-0.86649 1.31394,-1.90075 1.52165,-3.08641 0.18058,-1.5328 0.14646,-3.08164 0.13993,-4.62237 -0.0948,-1.24187 -0.47567,-2.44626 -1.18112,-3.47361 -0.7017,-1.16424 -1.63767,-2.07255 -2.85029,-2.68016 -0.72893,-0.27395 -1.45783,-0.52596 -2.18263,-0.81655 0,0 8.79701,-5.89054 8.79701,-5.89054 l 0,0 c 0.74904,0.30303 1.53084,0.53519 2.22825,0.9533 1.27174,0.792 2.34077,1.80042 3.11528,3.09604 0.79523,1.2168 1.31568,2.5708 1.45865,4.02566 0.004,1.57746 0.0124,3.15556 -0.0446,4.73228 -0.12479,1.3582 -0.41335,2.58969 -1.26966,3.69346 -3.21491,3.82453 -8.11116,5.91637 -12.72737,7.70793 -1.59822,0.50794 -3.24548,0.93138 -4.93172,0.9589 -1.95614,-0.034 -3.71645,-0.61954 -5.29988,-1.79784 -1.6301,-1.29656 -3.0486,-2.88196 -3.83796,-4.83622 -0.83471,-1.93346 -1.20959,-3.93923 -1.22545,-6.04938 0.2102,-2.17631 0.55112,-4.34765 1.90364,-6.14481 0.37157,-0.4752 1.19534,-1.55512 1.6113,-1.97749 1.21839,-1.23718 2.68615,-2.24941 4.09102,-3.2547 0,0 9.81539,-3.80724 9.81539,-3.80724 z"
       inkscape:connector-curvature="0"
       inkscape:export-filename="/home/deepak/Desktop/temp.png"
       inkscape:export-xdpi="90"
       inkscape:export-ydpi="90" />
    <path
       style="fill:#000000;fill-opacity:0.75686275;stroke:none"
       id="path4561-4-3-8-7"
       d="m 471.68887,409.72878 c -4.36203,3.81964 -8.61352,7.7259 -12.59592,11.94316 -4.2194,4.59674 -8.27094,9.34564 -12.31044,14.10048 -2.75261,3.10609 -5.39634,6.30592 -8.11546,9.4407 -1.60526,1.75786 -3.11546,3.59959 -4.78089,5.30143 -1.17798,1.24031 -2.33189,2.502 -3.41716,3.82459 -0.70792,0.95062 -1.43902,1.88288 -2.18088,2.8071 0,0 -9.6837,4.11962 -9.6837,4.11962 l 0,0 c 0.76617,-0.9029 1.527,-1.81152 2.20909,-2.78092 1.02016,-1.40659 2.22157,-2.66016 3.37338,-3.95363 1.7367,-1.69475 3.32682,-3.51238 4.96287,-5.30357 2.80474,-3.15513 5.51827,-6.38987 8.34666,-9.52425 4.11034,-4.76844 8.2174,-9.54192 12.44756,-14.20474 3.82513,-4.14965 7.88328,-8.03334 12.1043,-11.7767 0,0 9.64059,-3.99327 9.64059,-3.99327 z"
       inkscape:connector-curvature="0"
       inkscape:export-filename="/home/deepak/Desktop/temp.png"
       inkscape:export-xdpi="90"
       inkscape:export-ydpi="90" />
    <path
       style="fill:#000000;fill-opacity:0.75686275;stroke:none"
       id="path4606-5-3-8"
       d="m 368.18972,432.82578 c -2.56076,2.19934 -4.86674,4.69044 -6.74431,7.49663 -1.31212,1.90945 -2.14246,3.99572 -2.54889,6.26318 -0.16826,1.87302 0.20935,3.56743 1.23554,5.12458 1.30058,1.56536 2.96769,2.35401 4.91147,2.78392 2.25208,0.46162 4.48279,-0.0955 6.71874,-0.38479 2.18826,-0.12761 4.28738,-0.9132 6.22983,-1.89348 -29.30183,14.30801 -12.63484,8.79765 -10.18849,5.32891 0.2524,-0.3579 0.3572,-0.68764 0.51717,-1.08842 0.33681,-1.43132 0.49981,-2.96183 0.0345,-4.37416 -0.54298,-1.64933 -1.86724,-2.55097 -3.45088,-3.08205 -2.29369,-0.75348 -4.29676,0.28181 -6.40529,1.03427 -0.37171,0.13616 -0.74341,0.27233 -1.11512,0.40849 0,0 11.72893,-9.15664 11.72893,-9.15664 l 0,0 c 0.36728,-0.1297 0.73456,-0.2594 1.10183,-0.3891 2.35717,-0.82962 4.69694,-1.17017 7.08474,-0.18152 1.85495,0.88554 3.42265,2.10187 4.13419,4.10725 0.6706,1.67846 0.62388,3.4002 0.42526,5.18194 -0.23028,1.29915 -0.66233,2.86432 -1.88906,3.58937 -4.52432,2.67408 -9.10551,5.25076 -13.65827,7.87614 -2.09446,0.80842 -4.22879,1.41304 -6.48525,1.54664 -2.36964,0.30354 -4.7402,0.59475 -7.08344,-0.0863 -2.1676,-0.71655 -4.06336,-1.85207 -5.48597,-3.68152 -1.2436,-1.87094 -1.73605,-3.84086 -1.74712,-6.09461 0.31043,-2.45263 0.97081,-4.78566 2.38155,-6.85619 1.74034,-2.95691 4.06902,-5.46666 6.49406,-7.87843 0,0 13.80428,-5.59414 13.80428,-5.59414 z"
       inkscape:connector-curvature="0"
       inkscape:export-filename="/home/deepak/Desktop/temp.png"
       inkscape:export-xdpi="90"
       inkscape:export-ydpi="90" />
    <path
       style="fill:none;stroke:#ff0000;stroke-width:4;stroke-linecap:butt;stroke-linejoin:miter;stroke-miterlimit:4;stroke-opacity:1;stroke-dasharray:none"
       d="m 341.93035,462.17198 0,39.39595"
       id="path4647-7-5"
       inkscape:connector-curvature="0"
       inkscape:export-filename="/home/deepak/Desktop/temp.png"
       inkscape:export-xdpi="90"
       inkscape:export-ydpi="90" />
    <path
       style="fill:none;stroke:#ff0000;stroke-width:4;stroke-linecap:butt;stroke-linejoin:miter;stroke-miterlimit:4;stroke-opacity:1;stroke-dasharray:none"
       d="m 353.04203,462.69737 0,39.39595"
       id="path4647-7-7-4"
       inkscape:connector-curvature="0"
       inkscape:export-filename="/home/deepak/Desktop/temp.png"
       inkscape:export-xdpi="90"
       inkscape:export-ydpi="90" />
    <path
       style="fill:none;stroke:#ff0000;stroke-width:4;stroke-linecap:butt;stroke-linejoin:miter;stroke-miterlimit:4;stroke-opacity:1;stroke-dasharray:none"
       d="m 262.98977,460.70751 0,39.39595"
       id="path4647-7-7-6-5"
       inkscape:connector-curvature="0"
       inkscape:export-filename="/home/deepak/Desktop/temp.png"
       inkscape:export-xdpi="90"
       inkscape:export-ydpi="90" />
    <rect
       style="fill:#ffffff;fill-opacity:0.75686275;stroke:#287eac;stroke-width:1.98272145;stroke-miterlimit:4;stroke-opacity:1;stroke-dasharray:none"
       id="rect5044-9-4-8-3"
       width="20.028511"
       height="20.028511"
       x="636.40607"
       y="456.46008"
       ry="0.25355735"
       inkscape:export-filename="/home/deepak/Desktop/temp.png"
       inkscape:export-xdpi="90"
       inkscape:export-ydpi="90" />
    <text
       xml:space="preserve"
       style="font-size:15.32385063px;font-style:normal;font-weight:normal;line-height:125%;letter-spacing:0px;word-spacing:0px;fill:#000000;fill-opacity:1;stroke:none;font-family:Sans"
       x="524.29315"
       y="484.8912"
       id="text5073-4-0-7-6"
       sodipodi:linespacing="125%"
       transform="scale(1.0277578,0.97299188)"
       inkscape:export-filename="/home/deepak/Desktop/temp.png"
       inkscape:export-xdpi="90"
       inkscape:export-ydpi="90"><tspan
         sodipodi:role="line"
         id="tspan5075-2-1-2-0"
         x="524.29315"
         y="484.8912">Built?</tspan><tspan
         sodipodi:role="line"
         x="524.29315"
         y="504.04602"
         id="tspan5087-8-1-1-3">Cost</tspan><tspan
         sodipodi:role="line"
         x="524.29315"
         y="523.20087"
         id="tspan5083-3-9-4-1">Cell health</tspan></text>
    <rect
       style="fill:#9f9f9f;fill-opacity:1;stroke:none"
       id="rect2985-2-4-5-2-9-2-4-5-9-9"
       width="365.88373"
       height="2.0860291"
       x="129.55814"
       y="484.17633"
       rx="0"
       ry="0"
       inkscape:export-filename="/home/deepak/Desktop/temp.png"
       inkscape:export-xdpi="90"
       inkscape:export-ydpi="90" />
    <path
       style="fill:none;stroke:#7d7d7d;stroke-width:1px;stroke-linecap:butt;stroke-linejoin:miter;stroke-opacity:1"
       d="M 78.928572,484.50504 85,478.07647 l 9.285715,12.14285 12.142855,-12.85714 10,12.85714 9.28572,-12.14285 5,7.49999"
       id="path5529"
       inkscape:connector-curvature="0"
       sodipodi:nodetypes="ccccccc" />
    <text
       xml:space="preserve"
       style="font-size:15.32385063px;font-style:normal;font-weight:normal;line-height:125%;letter-spacing:0px;word-spacing:0px;fill:#000000;fill-opacity:1;stroke:none;font-family:Sans"
       x="532.93695"
       y="736.3125"
       id="text5073-5"
       sodipodi:linespacing="125%"
       transform="scale(1.0277578,0.97299188)"
       inkscape:export-filename="/home/deepak/Desktop/temp.png"
       inkscape:export-xdpi="90"
       inkscape:export-ydpi="90"><tspan
         sodipodi:role="line"
         id="tspan5075-28"
         x="532.93695"
         y="736.3125" /><tspan
         sodipodi:role="line"
         x="532.93695"
         y="755.46729"
         id="tspan5087-6">Cost</tspan><tspan
         sodipodi:role="line"
         x="532.93695"
         y="774.62213"
         id="tspan5083-6">Time</tspan></text>
    <rect
       style="fill:#d4b045;fill-opacity:0.75686275;stroke:none"
       id="rect5089-2"
       width="122.22845"
       height="11.111678"
       x="603.03674"
       y="723.59674"
       ry="0.38365048"
       inkscape:export-filename="/home/deepak/Desktop/temp.png"
       inkscape:export-xdpi="90"
       inkscape:export-ydpi="90" />
    <rect
       style="fill:#21fd2e;fill-opacity:0.75686276;stroke:none"
       id="rect5089-2-7"
       width="72.730972"
       height="11.111678"
       x="603.5661"
       y="739.71997"
       ry="0.38365048"
       inkscape:export-filename="/home/deepak/Desktop/temp.png"
       inkscape:export-xdpi="90"
       inkscape:export-ydpi="90" />
    <text
       xml:space="preserve"
       style="font-size:15.32385063px;font-style:normal;font-weight:normal;line-height:125%;letter-spacing:0px;word-spacing:0px;fill:#000000;fill-opacity:1;stroke:none;font-family:Sans"
       x="533.84351"
       y="794.92444"
       id="text5073-5-7"
       sodipodi:linespacing="125%"
       transform="scale(1.0277578,0.97299188)"
       inkscape:export-filename="/home/deepak/Desktop/temp.png"
       inkscape:export-xdpi="90"
       inkscape:export-ydpi="90"><tspan
         sodipodi:role="line"
         id="tspan5075-28-5"
         x="533.84351"
         y="794.92444" /><tspan
         sodipodi:role="line"
         x="533.84351"
         y="814.07922"
         id="tspan5087-6-3">Cost</tspan><tspan
         sodipodi:role="line"
         x="533.84351"
         y="833.23407"
         id="tspan5083-6-0">Time</tspan></text>
    <rect
       style="fill:#17fb14;fill-opacity:0.75686275;stroke:none"
       id="rect5089-2-2"
       width="40.40609"
       height="11.111678"
       x="602.95825"
       y="782.64606"
       ry="0.38365048"
       inkscape:export-filename="/home/deepak/Desktop/temp.png"
       inkscape:export-xdpi="90"
       inkscape:export-ydpi="90" />
    <rect
       style="fill:#fd7121;fill-opacity:0.75686276;stroke:none"
       id="rect5089-2-7-0"
       width="112.12692"
       height="11.111678"
       x="604.4978"
       y="796.74896"
       ry="0.38365048"
       inkscape:export-filename="/home/deepak/Desktop/temp.png"
       inkscape:export-xdpi="90"
       inkscape:export-ydpi="90" />
    <text
       xml:space="preserve"
       style="font-size:15.32385063px;font-style:normal;font-weight:normal;line-height:125%;letter-spacing:0px;word-spacing:0px;fill:#000000;fill-opacity:1;stroke:none;font-family:Sans"
       x="534.82635"
       y="850.98682"
       id="text5073-5-7-4"
       sodipodi:linespacing="125%"
       transform="scale(1.0277578,0.97299188)"
       inkscape:export-filename="/home/deepak/Desktop/temp.png"
       inkscape:export-xdpi="90"
       inkscape:export-ydpi="90"><tspan
         sodipodi:role="line"
         id="tspan5075-28-5-2"
         x="534.82635"
         y="850.98682" /><tspan
         sodipodi:role="line"
         x="534.82635"
         y="870.1416"
         id="tspan5087-6-3-2">Cost</tspan><tspan
         sodipodi:role="line"
         x="534.82635"
         y="889.29645"
         id="tspan5083-6-0-8">Time</tspan></text>
    <rect
       style="fill:#45c2d4;fill-opacity:0.75686275;stroke:none"
       id="rect5089-2-2-8"
       width="96.974632"
       height="11.111678"
       x="604.97858"
       y="835.17401"
       ry="0.38365048"
       inkscape:export-filename="/home/deepak/Desktop/temp.png"
       inkscape:export-xdpi="90"
       inkscape:export-ydpi="90" />
    <rect
       style="fill:#fd2134;fill-opacity:0.75686276;stroke:none"
       id="rect5089-2-7-0-6"
       width="150.51273"
       height="11.111678"
       x="605.50793"
       y="851.29724"
       ry="0.38365048"
       inkscape:export-filename="/home/deepak/Desktop/temp.png"
       inkscape:export-xdpi="90"
       inkscape:export-ydpi="90" />
  </g>
</svg>
