<?xml version="1.0" encoding="UTF-8" standalone="no"?>
<!-- Created with Inkscape (http://www.inkscape.org/) -->

<svg
   xmlns:dc="http://purl.org/dc/elements/1.1/"
   xmlns:cc="http://creativecommons.org/ns#"
   xmlns:rdf="http://www.w3.org/1999/02/22-rdf-syntax-ns#"
   xmlns:svg="http://www.w3.org/2000/svg"
   xmlns="http://www.w3.org/2000/svg"
   xmlns:sodipodi="http://sodipodi.sourceforge.net/DTD/sodipodi-0.dtd"
   xmlns:inkscape="http://www.inkscape.org/namespaces/inkscape"
   width="744.09448819"
   height="1052.3622047"
   id="svg4083"
   version="1.1"
   inkscape:version="0.48.4 r9939"
   sodipodi:docname="DNA.svg"
   inkscape:export-filename="/home/deepak/researchcode/drawcellJS/easel/DNA.png"
   inkscape:export-xdpi="64.015808"
   inkscape:export-ydpi="64.015808">
  <defs
     id="defs4085" />
  <sodipodi:namedview
     id="base"
     pagecolor="#ffffff"
     bordercolor="#666666"
     borderopacity="1.0"
     inkscape:pageopacity="0.0"
     inkscape:pageshadow="2"
     inkscape:zoom="1.4"
     inkscape:cx="331.76149"
     inkscape:cy="685.86897"
     inkscape:document-units="px"
     inkscape:current-layer="g4639"
     showgrid="false"
     inkscape:window-width="1120"
     inkscape:window-height="639"
     inkscape:window-x="2354"
     inkscape:window-y="471"
     inkscape:window-maximized="0" />
  <metadata
     id="metadata4088">
    <rdf:RDF>
      <cc:Work
         rdf:about="">
        <dc:format>image/svg+xml</dc:format>
        <dc:type
           rdf:resource="http://purl.org/dc/dcmitype/StillImage" />
        <dc:title></dc:title>
      </cc:Work>
    </rdf:RDF>
  </metadata>
  <g
     inkscape:label="Layer 1"
     inkscape:groupmode="layer"
     id="layer1">
    <g
       id="g4639"
       transform="matrix(0.70710678,0.70710678,-0.70710678,0.70710678,147.81633,323.62327)">
      <path
         d="m 98.572616,164.06645 c 0.97761,-0.93776 1.294991,-2.22526 0.704022,-2.87167 L 78.266723,138.22917 c -0.590122,-0.64658 -1.864067,-0.40939 -2.844335,0.53377 l 0,0 c -0.977771,0.93861 -1.294991,2.22526 -0.704022,2.87168 l 21.009067,22.96577 c 0.591977,0.6454 1.864549,0.40685 2.845183,-0.53394 l 0,0 z"
         id="path5395"
         inkscape:connector-curvature="0"
         style="fill:#f16032;stroke:#010101;stroke-width:0.25091821" />
      <path
         d="m 195.802,99.639 c 0.951,-0.952 0.953,-2.499 0,-3.451 l -33.859,-33.86 c -0.952,-0.951 -2.498,-0.95 -3.451,0.002 l 0,0 c -0.951,0.951 -0.951,2.497 0,3.448 l 33.861,33.86 c 0.951,0.952 2.496,0.954 3.449,10e-4 l 0,0 z"
         id="path5397"
         inkscape:connector-curvature="0"
         style="fill:#f16032;stroke:#010101;stroke-width:0.31" />
      <path
         d="m 193.854,116.922 c 0.981,-0.922 1.057,-2.437 0.167,-3.38 L 162.452,79.996 c -0.888,-0.945 -2.403,-0.962 -3.386,-0.038 l 0,0 c -0.98,0.921 -1.057,2.438 -0.168,3.379 l 31.572,33.549 c 0.889,0.942 2.403,0.958 3.384,0.036 l 0,0 z"
         id="path5399"
         inkscape:connector-curvature="0"
         style="fill:#f16032;stroke:#010101;stroke-width:0.30410001" />
      <path
         d="m 176.894,119.397 c 1.133,-0.729 1.671,-1.912 1.201,-2.642 L 161.394,90.776 c -0.472,-0.729 -1.771,-0.731 -2.902,-0.005 l 0,0 c -1.135,0.727 -1.672,1.912 -1.203,2.642 l 16.703,25.98 c 0.468,0.73 1.769,0.732 2.902,0.004 l 0,0 z"
         id="path5401"
         inkscape:connector-curvature="0"
         style="fill:#f16032;stroke:#010101;stroke-width:0.249" />
      <path
         d="m 166.174,140.867 c 0.95,-0.951 1.028,-2.421 0.166,-3.283 l -30.588,-30.588 c -0.86,-0.86 -2.333,-0.785 -3.283,0.166 l 0,0 c -0.953,0.952 -1.027,2.422 -0.167,3.283 l 30.587,30.588 c 0.862,0.861 2.331,0.787 3.285,-0.166 l 0,0 z"
         id="path5403"
         inkscape:connector-curvature="0"
         style="fill:#f16032;stroke:#010101;stroke-width:0.2947" />
      <path
         style="fill:#2e3192;stroke:#b0e0e6;stroke-width:0.31"
         d="M 139 475.09375 C 135.39699 475.06869 131.36798 475.63899 126.90625 477.09375 C 115.36958 480.85585 101.78818 501.71097 92.15625 519.125 L 92.15625 542.65625 C 92.291979 542.60094 92.431079 542.55972 92.5625 542.5 C 92.5625 542.5 109.17257 493.94734 129.125 481.53125 C 129.125 481.53125 136.21683 477.55008 141.09375 478.4375 C 145.97067 479.32492 155.74152 485.53328 161.0625 494.84375 C 166.38277 504.15493 185.00853 534.30932 186.78125 536.96875 C 188.55397 539.62818 192.52474 544.94265 200.0625 544.5 C 207.60026 544.05735 210.71613 544.49606 215.59375 540.0625 C 215.59375 540.0625 216.50788 539.16044 217.84375 537.75 L 217.84375 523.15625 C 216.34708 525.49059 214.8512 527.74279 213.375 529.875 C 201.40298 547.1673 200.50919 541.41029 195.1875 536.53125 C 189.86723 531.65504 168.15887 491.75404 163.28125 486.875 C 159.47005 483.06491 151.8679 475.18324 139 475.09375 z "
         id="path5407"
         transform="matrix(0.70710678,-0.70710678,0.70710678,0.70710678,-333.35814,-124.31428)" />
      <path
         style="fill:#2e3192;stroke:#b0e0e6;stroke-width:0.31"
         d="M 101.09375 474.4375 C 98.582582 474.4201 95.860934 474.71169 92.9375 475.375 L 92.9375 480.03125 C 95.331759 478.91391 99.776026 477.16049 103.1875 477.78125 C 108.06512 478.66796 117.83527 484.87703 123.15625 494.1875 C 128.47723 503.49939 147.10158 533.65236 148.875 536.3125 C 150.64772 538.97334 154.6192 544.28711 162.15625 543.84375 C 169.69401 543.39969 172.80988 543.83981 177.6875 539.40625 C 177.6875 539.40625 187.86652 529.20501 193.1875 520.78125 C 198.50848 512.35749 215.8125 480.4375 215.8125 480.4375 C 215.8125 480.4375 217.31831 483.37094 218.6875 486.03125 L 218.6875 475.78125 C 216.16155 475.29293 214.03125 475.5625 214.03125 475.5625 C 214.03125 475.5625 208.70966 475.55473 204.71875 480.875 C 200.72855 486.19598 187.44007 511.92716 175.46875 529.21875 C 163.49743 546.51175 162.60364 540.72208 157.28125 535.84375 C 151.96169 530.96683 130.25262 491.06512 125.375 486.1875 C 121.56436 482.37796 113.96133 474.52666 101.09375 474.4375 z "
         id="path5409"
         transform="matrix(0.70710678,-0.70710678,0.70710678,0.70710678,-333.35814,-124.31428)" />
      <path
         d="m 144.07,146.353 c 0.951,-0.95 0.972,-2.477 0.044,-3.404 l -33.007,-33.007 c -0.93,-0.931 -2.455,-0.908 -3.406,0.043 l 0,0 c -0.953,0.952 -0.971,2.478 -0.043,3.406 l 33.007,33.007 c 0.929,0.927 2.452,0.908 3.405,-0.045 l 0,0 z"
         id="path5411"
         inkscape:connector-curvature="0"
         style="fill:#f16032;stroke:#010101;stroke-width:0.30610001" />
      <path
         d="m 158.492,147.606 c 0.951,-0.95 0.881,-2.567 -0.158,-3.607 l -36.991,-36.991 c -1.04,-1.039 -2.658,-1.11 -3.609,-0.16 l 0,0 c -0.952,0.953 -0.881,2.568 0.16,3.609 l 36.991,36.99 c 1.038,1.04 2.654,1.114 3.607,0.159 l 0,0 z"
         id="path5413"
         inkscape:connector-curvature="0"
         style="fill:#f16032;stroke:#010101;stroke-width:0.324" />
      <path
         d="m 124.391,141.251 c 0.865,-1.034 1.03,-2.322 0.36,-2.879 L 101.1,118.521 c -0.664,-0.56 -1.907,-0.176 -2.771,0.856 l 0,0 c -0.867,1.033 -1.029,2.322 -0.363,2.879 l 23.652,19.851 c 0.666,0.559 1.907,0.176 2.773,-0.856 l 0,0 z"
         id="path5415"
         inkscape:connector-curvature="0"
         style="fill:#f16032;stroke:#010101;stroke-width:0.249" />
      <rect
         style="fill:#d9dee4;fill-opacity:1;stroke:none"
         id="rect5376"
         width="8.586297"
         height="75.761444"
         x="344.12793"
         y="2.9443171"
         transform="matrix(0.70710678,-0.70710678,0.70710678,0.70710678,0,0)"
         rx="12.952381"
         ry="7.5761442"
         inkscape:export-filename="/home/deepak/researchcode/drawcellJS/easel/bilayer.png"
         inkscape:export-xdpi="20.021393"
         inkscape:export-ydpi="20.021393" />
      <rect
         style="fill:#d9dee4;fill-opacity:1;stroke:none"
         id="rect5376-3"
         width="8.586297"
         height="75.761444"
         x="354.48203"
         y="2.4392316"
         rx="12.952381"
         ry="7.0710678"
         transform="matrix(0.70710678,-0.70710678,0.70710678,0.70710678,0,0)"
         inkscape:export-filename="/home/deepak/researchcode/drawcellJS/easel/bilayer.png"
         inkscape:export-xdpi="20.021393"
         inkscape:export-ydpi="20.021393" />
      <path
         sodipodi:type="arc"
         style="fill:#879dad;fill-opacity:1;stroke:none"
         id="path5356"
         sodipodi:cx="499.01535"
         sodipodi:cy="308.88992"
         sodipodi:rx="24.243662"
         sodipodi:ry="24.243662"
         d="m 523.25901,308.88992 a 24.243662,24.243662 0 1 1 -48.48732,0 24.243662,24.243662 0 1 1 48.48732,0 z"
         transform="matrix(0.57169012,-0.57169012,0.57169012,0.57169012,-211.26612,-140.02018)"
         inkscape:export-filename="/home/deepak/researchcode/drawcellJS/easel/bilayer.png"
         inkscape:export-xdpi="20.021393"
         inkscape:export-ydpi="20.021393" />
      <rect
         style="fill:#d9dee4;fill-opacity:1;stroke:none"
         id="rect5376-9"
         width="8.586297"
         height="75.761444"
         x="-363.26999"
         y="-154.58754"
         rx="12.952381"
         ry="7.5761442"
         transform="matrix(-0.70710678,0.70710678,-0.70710678,-0.70710678,0,0)"
         inkscape:export-filename="/home/deepak/researchcode/drawcellJS/easel/bilayer.png"
         inkscape:export-xdpi="20.021393"
         inkscape:export-ydpi="20.021393" />
      <rect
         style="fill:#d9dee4;fill-opacity:1;stroke:none"
         id="rect5376-3-5"
         width="8.586297"
         height="75.761444"
         x="-352.91589"
         y="-155.09264"
         rx="12.952381"
         ry="7.0710678"
         transform="matrix(-0.70710678,0.70710678,-0.70710678,-0.70710678,0,0)"
         inkscape:export-filename="/home/deepak/researchcode/drawcellJS/easel/bilayer.png"
         inkscape:export-xdpi="20.021393"
         inkscape:export-ydpi="20.021393" />
      <path
         sodipodi:type="arc"
         style="fill:#879dad;fill-opacity:1;stroke:none"
         id="path5356-1"
         sodipodi:cx="499.01535"
         sodipodi:cy="308.88992"
         sodipodi:rx="24.243662"
         sodipodi:ry="24.243662"
         d="m 523.25901,308.88992 a 24.243662,24.243662 0 1 1 -48.48732,0 24.243662,24.243662 0 1 1 48.48732,0 z"
         transform="matrix(-0.57169012,0.57169012,-0.57169012,-0.57169012,822.86383,-248.79384)"
         inkscape:export-filename="/home/deepak/researchcode/drawcellJS/easel/bilayer.png"
         inkscape:export-xdpi="20.021393"
         inkscape:export-ydpi="20.021393" />
    </g>
  </g>
</svg>
