<?xml version="1.0" encoding="UTF-8" standalone="no"?>
<!-- Created with Inkscape (http://www.inkscape.org/) -->

<svg
   xmlns:dc="http://purl.org/dc/elements/1.1/"
   xmlns:cc="http://creativecommons.org/ns#"
   xmlns:rdf="http://www.w3.org/1999/02/22-rdf-syntax-ns#"
   xmlns:svg="http://www.w3.org/2000/svg"
   xmlns="http://www.w3.org/2000/svg"
   xmlns:sodipodi="http://sodipodi.sourceforge.net/DTD/sodipodi-0.dtd"
   xmlns:inkscape="http://www.inkscape.org/namespaces/inkscape"
   width="744.09448819"
   height="1052.3622047"
   id="svg2"
   version="1.1"
   inkscape:version="0.48.4 r9939"
   inkscape:export-filename="/home/deepak/researchcode/drawcellJS/easel/protein_chomp.png"
   inkscape:export-xdpi="90"
   inkscape:export-ydpi="90"
   sodipodi:docname="protein_chomp.svg">
  <defs
     id="defs4">
    <filter
       inkscape:collect="always"
       id="filter3778">
      <feGaussianBlur
         inkscape:collect="always"
         stdDeviation="0.32951796"
         id="feGaussianBlur3780" />
    </filter>
    <filter
       color-interpolation-filters="sRGB"
       inkscape:collect="always"
       id="filter3778-4">
      <feGaussianBlur
         inkscape:collect="always"
         stdDeviation="0.32951796"
         id="feGaussianBlur3780-4" />
    </filter>
    <filter
       color-interpolation-filters="sRGB"
       inkscape:collect="always"
       id="filter3778-44">
      <feGaussianBlur
         inkscape:collect="always"
         stdDeviation="0.32951796"
         id="feGaussianBlur3780-0" />
    </filter>
    <filter
       color-interpolation-filters="sRGB"
       inkscape:collect="always"
       id="filter3778-44-7">
      <feGaussianBlur
         inkscape:collect="always"
         stdDeviation="0.32951796"
         id="feGaussianBlur3780-0-6" />
    </filter>
    <filter
       color-interpolation-filters="sRGB"
       inkscape:collect="always"
       id="filter3778-44-5">
      <feGaussianBlur
         inkscape:collect="always"
         stdDeviation="0.32951796"
         id="feGaussianBlur3780-0-0" />
    </filter>
    <filter
       color-interpolation-filters="sRGB"
       inkscape:collect="always"
       id="filter3778-44-1">
      <feGaussianBlur
         inkscape:collect="always"
         stdDeviation="0.32951796"
         id="feGaussianBlur3780-0-64" />
    </filter>
    <filter
       color-interpolation-filters="sRGB"
       inkscape:collect="always"
       id="filter3778-44-3">
      <feGaussianBlur
         inkscape:collect="always"
         stdDeviation="0.32951796"
         id="feGaussianBlur3780-0-3" />
    </filter>
    <filter
       color-interpolation-filters="sRGB"
       inkscape:collect="always"
       id="filter3778-44-56">
      <feGaussianBlur
         inkscape:collect="always"
         stdDeviation="0.32951796"
         id="feGaussianBlur3780-0-09" />
    </filter>
    <filter
       color-interpolation-filters="sRGB"
       inkscape:collect="always"
       id="filter3778-44-56-0">
      <feGaussianBlur
         inkscape:collect="always"
         stdDeviation="0.32951796"
         id="feGaussianBlur3780-0-09-8" />
    </filter>
    <filter
       color-interpolation-filters="sRGB"
       inkscape:collect="always"
       id="filter3778-44-3-9">
      <feGaussianBlur
         inkscape:collect="always"
         stdDeviation="0.32951796"
         id="feGaussianBlur3780-0-3-8" />
    </filter>
    <filter
       color-interpolation-filters="sRGB"
       inkscape:collect="always"
       id="filter3778-44-1-0">
      <feGaussianBlur
         inkscape:collect="always"
         stdDeviation="0.32951796"
         id="feGaussianBlur3780-0-64-4" />
    </filter>
    <filter
       color-interpolation-filters="sRGB"
       inkscape:collect="always"
       id="filter3778-44-5-9">
      <feGaussianBlur
         inkscape:collect="always"
         stdDeviation="0.32951796"
         id="feGaussianBlur3780-0-0-6" />
    </filter>
    <filter
       color-interpolation-filters="sRGB"
       inkscape:collect="always"
       id="filter3778-44-7-5">
      <feGaussianBlur
         inkscape:collect="always"
         stdDeviation="0.32951796"
         id="feGaussianBlur3780-0-6-1" />
    </filter>
    <filter
       color-interpolation-filters="sRGB"
       inkscape:collect="always"
       id="filter3778-44-9">
      <feGaussianBlur
         inkscape:collect="always"
         stdDeviation="0.32951796"
         id="feGaussianBlur3780-0-8" />
    </filter>
    <filter
       color-interpolation-filters="sRGB"
       inkscape:collect="always"
       id="filter3778-4-2">
      <feGaussianBlur
         inkscape:collect="always"
         stdDeviation="0.32951796"
         id="feGaussianBlur3780-4-6" />
    </filter>
    <filter
       color-interpolation-filters="sRGB"
       inkscape:collect="always"
       id="filter3778-1">
      <feGaussianBlur
         inkscape:collect="always"
         stdDeviation="0.32951796"
         id="feGaussianBlur3780-49" />
    </filter>
  </defs>
  <sodipodi:namedview
     id="base"
     pagecolor="#ffffff"
     bordercolor="#666666"
     borderopacity="1.0"
     inkscape:pageopacity="0.0"
     inkscape:pageshadow="2"
     inkscape:zoom="1.979899"
     inkscape:cx="63.191812"
     inkscape:cy="839.44421"
     inkscape:document-units="px"
     inkscape:current-layer="layer1"
     showgrid="false"
     inkscape:window-width="1568"
     inkscape:window-height="862"
     inkscape:window-x="350"
     inkscape:window-y="254"
     inkscape:window-maximized="0" />
  <metadata
     id="metadata7">
    <rdf:RDF>
      <cc:Work
         rdf:about="">
        <dc:format>image/svg+xml</dc:format>
        <dc:type
           rdf:resource="http://purl.org/dc/dcmitype/StillImage" />
        <dc:title></dc:title>
      </cc:Work>
    </rdf:RDF>
  </metadata>
  <g
     inkscape:label="Layer 1"
     inkscape:groupmode="layer"
     id="layer1">
    <path
       style="fill:#5f6874;fill-opacity:1;stroke:none"
       d="m 64.999996,131.34823 c 0,15.43416 -18.73232,11.652 -34.440605,11.652 C 14.851109,143.00023 0,161.68967 0,146.25551 c 0,-15.43415 14.851109,-43.89333 30.559391,-43.89333 15.708285,0 34.440605,13.5519 34.440605,28.98605 z"
       id="path2985-5"
       inkscape:connector-curvature="0"
       sodipodi:nodetypes="sssss" />
    <path
       style="fill:#5f6874;fill-opacity:1;stroke:none"
       d="m 130,137.41966 c 0,15.43416 -18.73232,5.58057 -34.440609,5.58057 C 79.851109,143.00023 65,161.68967 65,146.25551 65,130.82136 79.851109,102.36218 95.559391,102.36218 111.26768,102.36218 130,121.98551 130,137.41966 z"
       id="path2985-5-3"
       inkscape:connector-curvature="0"
       sodipodi:nodetypes="sssss" />
    <path
       style="fill:#5f6874;fill-opacity:1;stroke:none"
       d="m 195,142.7768 c 0,15.43416 -18.73232,0.22343 -34.44061,0.22343 -15.70828,0 -30.55939,18.68944 -30.55939,3.25528 0,-15.43415 14.85111,-43.89333 30.55939,-43.89333 15.70829,0 34.44061,24.98047 34.44061,40.41462 z"
       id="path2985-5-3-1"
       inkscape:connector-curvature="0"
       sodipodi:nodetypes="sssss" />
    <path
       style="fill:#5f6874;fill-opacity:1;stroke:none"
       d="m 260,142.7768 c 0,15.43416 -18.73232,-4.77657 -34.44061,-4.77657 -15.70828,0 -30.55939,23.68944 -30.55939,8.25528 0,-15.43415 14.85111,-43.89333 30.55939,-43.89333 15.70829,0 34.44061,24.98047 34.44061,40.41462 z"
       id="path2985-5-3-1-1"
       inkscape:connector-curvature="0"
       sodipodi:nodetypes="sssss" />
    <path
       style="fill:#5f6874;fill-opacity:1;stroke:none"
       d="m 325,143.66077 c 0,15.43416 -18.73232,-10.13371 -34.44061,-10.13371 -15.70828,0 -30.55939,29.04658 -30.55939,13.61242 0,-15.43415 14.85111,-43.89333 30.55939,-43.89333 15.70829,0 34.44061,24.98047 34.44061,40.41462 z"
       id="path2985-5-3-1-1-9"
       inkscape:connector-curvature="0"
       sodipodi:nodetypes="sssss" />
    <path
       style="fill:#5f6874;fill-opacity:1;stroke:none"
       d="m 387.36697,144.36382 c -0.61631,15.53181 -21.0456,-11.86976 -31.58347,-11.91942 -8.68382,-0.0409 -25.63484,30.83228 -28.05939,15.39813 -2.39517,-15.24717 12.35111,-43.89333 28.05939,-43.89333 15.70829,0 32.19542,24.99261 31.58347,40.41462 z"
       id="path2985-5-3-1-1-9-5"
       inkscape:connector-curvature="0"
       sodipodi:nodetypes="sssss" />
    <path
       style="fill:#5f6874;fill-opacity:1;stroke:none"
       d="m 448.4384,144.56209 c -0.61631,15.53181 -17.11703,-11.86976 -27.6549,-11.91942 -8.68382,-0.0409 -23.49198,30.83228 -25.91653,15.39813 -2.39517,-15.24717 10.20825,-43.89333 25.91653,-43.89333 15.70829,0 28.26685,24.99261 27.6549,40.41462 z"
       id="path2985-5-3-1-1-9-5-7"
       inkscape:connector-curvature="0"
       sodipodi:nodetypes="sssss" />
    <path
       style="fill:#5f6874;fill-opacity:1;stroke:none"
       d="m 510.35714,144.36382 c 0,15.43416 -9.08946,-12.27657 -24.79775,-12.27657 -15.70828,0 -21.98796,31.18944 -21.98796,15.75528 0,-15.43415 6.27968,-43.89333 21.98796,-43.89333 15.70829,0 24.79775,24.98047 24.79775,40.41462 z"
       id="path2985-5-3-1-1-9-1"
       inkscape:connector-curvature="0"
       sodipodi:nodetypes="sssss" />
    <path
       style="fill:#5f6874;fill-opacity:1;stroke:none"
       d="m 520.00014,183.34823 c 0,15.43416 -18.73232,11.652 -34.44061,11.652 -15.70828,0 -30.55939,18.68944 -30.55939,3.25528 0,-15.43415 14.85111,-43.89333 30.55939,-43.89333 15.70829,0 34.44061,13.5519 34.44061,28.98605 z"
       id="path2985-5-9"
       inkscape:connector-curvature="0"
       sodipodi:nodetypes="sssss" />
    <path
       style="fill:#5f6874;fill-opacity:1;stroke:none"
       d="m 455.00014,189.41966 c 0,15.43416 -18.73232,5.58057 -34.44061,5.58057 -15.70828,0 -30.55939,18.68944 -30.55939,3.25528 0,-15.43415 14.85111,-43.89333 30.55939,-43.89333 15.70829,0 34.44061,19.62333 34.44061,35.05748 z"
       id="path2985-5-3-0"
       inkscape:connector-curvature="0"
       sodipodi:nodetypes="sssss" />
    <path
       style="fill:#5f6874;fill-opacity:1;stroke:none"
       d="m 390.00014,194.7768 c 0,15.43416 -18.73232,0.22343 -34.44061,0.22343 -15.70828,0 -30.55939,18.68944 -30.55939,3.25528 0,-15.43415 14.85111,-43.89333 30.55939,-43.89333 15.70829,0 34.44061,24.98047 34.44061,40.41462 z"
       id="path2985-5-3-1-4"
       inkscape:connector-curvature="0"
       sodipodi:nodetypes="sssss" />
    <path
       style="fill:#5f6874;fill-opacity:1;stroke:none"
       d="m 325.00014,194.7768 c 0,15.43416 -18.73232,-4.77657 -34.44061,-4.77657 -15.70828,0 -30.55939,23.68944 -30.55939,8.25528 0,-15.43415 14.85111,-43.89333 30.55939,-43.89333 15.70829,0 34.44061,24.98047 34.44061,40.41462 z"
       id="path2985-5-3-1-1-98"
       inkscape:connector-curvature="0"
       sodipodi:nodetypes="sssss" />
    <path
       style="fill:#5f6874;fill-opacity:1;stroke:none"
       d="m 260.00014,195.66077 c 0,15.43416 -18.73232,-10.13371 -34.44061,-10.13371 -15.70828,0 -30.55939,29.04658 -30.55939,13.61242 0,-15.43415 14.85111,-43.89333 30.55939,-43.89333 15.70829,0 34.44061,24.98047 34.44061,40.41462 z"
       id="path2985-5-3-1-1-9-6"
       inkscape:connector-curvature="0"
       sodipodi:nodetypes="sssss" />
    <path
       style="fill:#5f6874;fill-opacity:1;stroke:none"
       d="m 192.51632,196.36382 c -0.61631,15.53181 -21.0456,-11.86976 -31.58347,-11.91942 -8.68382,-0.0409 -25.63484,30.83228 -28.05939,15.39813 -2.39517,-15.24717 12.35111,-43.89333 28.05939,-43.89333 15.70829,0 32.19542,24.99261 31.58347,40.41462 z"
       id="path2985-5-3-1-1-9-5-4"
       inkscape:connector-curvature="0"
       sodipodi:nodetypes="sssss" />
    <path
       style="fill:#5f6874;fill-opacity:1;stroke:none"
       d="m 125.40495,196.56209 c -0.61631,15.53181 -17.11703,-11.86976 -27.6549,-11.91942 -8.68382,-0.0409 -23.49198,30.83228 -25.91653,15.39813 -2.39517,-15.24717 10.20825,-43.89333 25.91653,-43.89333 15.70829,0 28.26685,24.99261 27.6549,40.41462 z"
       id="path2985-5-3-1-1-9-5-7-7"
       inkscape:connector-curvature="0"
       sodipodi:nodetypes="sssss" />
    <path
       style="fill:#5f6874;fill-opacity:1;stroke:none"
       d="m 56.42871,196.36382 c 0,15.43416 -9.08946,-12.27657 -24.79775,-12.27657 -15.70828,0 -21.98796,31.18944 -21.98796,15.75528 0,-15.43415 6.27968,-43.89333 21.98796,-43.89333 15.70829,0 24.79775,24.98047 24.79775,40.41462 z"
       id="path2985-5-3-1-1-9-1-9"
       inkscape:connector-curvature="0"
       sodipodi:nodetypes="sssss" />
    <path
       sodipodi:type="arc"
       style="fill:#555400;fill-opacity:1;stroke:#dee45a;stroke-opacity:1;filter:url(#filter3778)"
       id="path3000"
       sodipodi:cx="-15.278557"
       sodipodi:cy="77.438713"
       sodipodi:rx="4.4194174"
       sodipodi:ry="4.4194174"
       d="m -10.859139,77.438713 a 4.4194174,4.4194174 0 1 1 -8.838835,0 4.4194174,4.4194174 0 1 1 8.838835,0 z"
       transform="translate(118.48882,44.213209)" />
    <text
       xml:space="preserve"
       style="font-size:6.383811px;font-style:normal;font-weight:normal;line-height:125%;letter-spacing:0px;word-spacing:0px;fill:#fff8c5;fill-opacity:1;stroke:none;font-family:Sans"
       x="101.21519"
       y="123.84613"
       id="text3002"
       sodipodi:linespacing="125%"><tspan
         sodipodi:role="line"
         id="tspan3004"
         x="101.21519"
         y="123.84613">P</tspan></text>
    <path
       sodipodi:type="arc"
       style="fill:#555400;fill-opacity:1;stroke:#dee45a;stroke-opacity:1;filter:url(#filter3778-4)"
       id="path3000-2"
       sodipodi:cx="-15.278557"
       sodipodi:cy="77.438713"
       sodipodi:rx="4.4194174"
       sodipodi:ry="4.4194174"
       d="m -10.859139,77.438713 a 4.4194174,4.4194174 0 1 1 -8.838835,0 4.4194174,4.4194174 0 1 1 8.838835,0 z"
       transform="translate(53.488817,44.213209)" />
    <text
       xml:space="preserve"
       style="font-size:6.383811px;font-style:normal;font-weight:normal;line-height:125%;letter-spacing:0px;word-spacing:0px;fill:#fff8c5;fill-opacity:1;stroke:none;font-family:Sans"
       x="36.215183"
       y="123.84613"
       id="text3002-5"
       sodipodi:linespacing="125%"><tspan
         sodipodi:role="line"
         id="tspan3004-9"
         x="36.215183"
         y="123.84613">P</tspan></text>
    <path
       sodipodi:type="arc"
       style="fill:#555400;fill-opacity:1;stroke:#dee45a;stroke-opacity:1;filter:url(#filter3778-44)"
       id="path3000-7"
       sodipodi:cx="-15.278557"
       sodipodi:cy="77.438713"
       sodipodi:rx="4.4194174"
       sodipodi:ry="4.4194174"
       d="m -10.859139,77.438713 a 4.4194174,4.4194174 0 1 1 -8.838835,0 4.4194174,4.4194174 0 1 1 8.838835,0 z"
       transform="translate(183.48882,44.213209)" />
    <text
       xml:space="preserve"
       style="font-size:6.383811px;font-style:normal;font-weight:normal;line-height:125%;letter-spacing:0px;word-spacing:0px;fill:#fff8c5;fill-opacity:1;stroke:none;font-family:Sans"
       x="166.21519"
       y="123.84613"
       id="text3002-3"
       sodipodi:linespacing="125%"><tspan
         sodipodi:role="line"
         id="tspan3004-0"
         x="166.21519"
         y="123.84613">P</tspan></text>
    <path
       sodipodi:type="arc"
       style="fill:#555400;fill-opacity:1;stroke:#dee45a;stroke-opacity:1;filter:url(#filter3778-44-7)"
       id="path3000-7-4"
       sodipodi:cx="-15.278557"
       sodipodi:cy="77.438713"
       sodipodi:rx="4.4194174"
       sodipodi:ry="4.4194174"
       d="m -10.859139,77.438713 a 4.4194174,4.4194174 0 1 1 -8.838835,0 4.4194174,4.4194174 0 1 1 8.838835,0 z"
       transform="translate(248.48882,44.213209)" />
    <text
       xml:space="preserve"
       style="font-size:6.383811px;font-style:normal;font-weight:normal;line-height:125%;letter-spacing:0px;word-spacing:0px;fill:#fff8c5;fill-opacity:1;stroke:none;font-family:Sans"
       x="231.21519"
       y="123.84613"
       id="text3002-3-4"
       sodipodi:linespacing="125%"><tspan
         sodipodi:role="line"
         id="tspan3004-0-7"
         x="231.21519"
         y="123.84613">P</tspan></text>
    <path
       sodipodi:type="arc"
       style="fill:#555400;fill-opacity:1;stroke:#dee45a;stroke-opacity:1;filter:url(#filter3778-44-5)"
       id="path3000-7-8"
       sodipodi:cx="-15.278557"
       sodipodi:cy="77.438713"
       sodipodi:rx="4.4194174"
       sodipodi:ry="4.4194174"
       d="m -10.859139,77.438713 a 4.4194174,4.4194174 0 1 1 -8.838835,0 4.4194174,4.4194174 0 1 1 8.838835,0 z"
       transform="translate(378.48882,44.213209)" />
    <text
       xml:space="preserve"
       style="font-size:6.383811px;font-style:normal;font-weight:normal;line-height:125%;letter-spacing:0px;word-spacing:0px;fill:#fff8c5;fill-opacity:1;stroke:none;font-family:Sans"
       x="361.21518"
       y="123.84613"
       id="text3002-3-7"
       sodipodi:linespacing="125%"><tspan
         sodipodi:role="line"
         id="tspan3004-0-79"
         x="361.21518"
         y="123.84613">P</tspan></text>
    <path
       sodipodi:type="arc"
       style="fill:#555400;fill-opacity:1;stroke:#dee45a;stroke-opacity:1;filter:url(#filter3778-44-1)"
       id="path3000-7-2"
       sodipodi:cx="-15.278557"
       sodipodi:cy="77.438713"
       sodipodi:rx="4.4194174"
       sodipodi:ry="4.4194174"
       d="m -10.859139,77.438713 a 4.4194174,4.4194174 0 1 1 -8.838835,0 4.4194174,4.4194174 0 1 1 8.838835,0 z"
       transform="translate(443.48882,44.213209)" />
    <text
       xml:space="preserve"
       style="font-size:6.383811px;font-style:normal;font-weight:normal;line-height:125%;letter-spacing:0px;word-spacing:0px;fill:#fff8c5;fill-opacity:1;stroke:none;font-family:Sans"
       x="426.21518"
       y="123.84613"
       id="text3002-3-6"
       sodipodi:linespacing="125%"><tspan
         sodipodi:role="line"
         id="tspan3004-0-2"
         x="426.21518"
         y="123.84613">P</tspan></text>
    <path
       sodipodi:type="arc"
       style="fill:#555400;fill-opacity:1;stroke:#dee45a;stroke-opacity:1;filter:url(#filter3778-44-3)"
       id="path3000-7-0"
       sodipodi:cx="-15.278557"
       sodipodi:cy="77.438713"
       sodipodi:rx="4.4194174"
       sodipodi:ry="4.4194174"
       d="m -10.859139,77.438713 a 4.4194174,4.4194174 0 1 1 -8.838835,0 4.4194174,4.4194174 0 1 1 8.838835,0 z"
       transform="translate(313.48882,44.213209)" />
    <text
       xml:space="preserve"
       style="font-size:6.383811px;font-style:normal;font-weight:normal;line-height:125%;letter-spacing:0px;word-spacing:0px;fill:#fff8c5;fill-opacity:1;stroke:none;font-family:Sans"
       x="296.21518"
       y="123.84613"
       id="text3002-3-9"
       sodipodi:linespacing="125%"><tspan
         sodipodi:role="line"
         id="tspan3004-0-74"
         x="296.21518"
         y="123.84613">P</tspan></text>
    <path
       sodipodi:type="arc"
       style="fill:#555400;fill-opacity:1;stroke:#dee45a;stroke-opacity:1;filter:url(#filter3778-44-56)"
       id="path3000-7-9"
       sodipodi:cx="-15.278557"
       sodipodi:cy="77.438713"
       sodipodi:rx="4.4194174"
       sodipodi:ry="4.4194174"
       d="m -10.859139,77.438713 a 4.4194174,4.4194174 0 1 1 -8.838835,0 4.4194174,4.4194174 0 1 1 8.838835,0 z"
       transform="translate(508.48882,44.213209)" />
    <text
       xml:space="preserve"
       style="font-size:6.383811px;font-style:normal;font-weight:normal;line-height:125%;letter-spacing:0px;word-spacing:0px;fill:#fff8c5;fill-opacity:1;stroke:none;font-family:Sans"
       x="491.21518"
       y="123.84613"
       id="text3002-3-8"
       sodipodi:linespacing="125%"><tspan
         sodipodi:role="line"
         id="tspan3004-0-5"
         x="491.21518"
         y="123.84613">P</tspan></text>
    <path
       sodipodi:type="arc"
       style="fill:#555400;fill-opacity:1;stroke:#dee45a;stroke-opacity:1;filter:url(#filter3778-1)"
       id="path3000-8"
       sodipodi:cx="-15.278557"
       sodipodi:cy="77.438713"
       sodipodi:rx="4.4194174"
       sodipodi:ry="4.4194174"
       d="m -10.859139,77.438713 a 4.4194174,4.4194174 0 1 1 -8.838835,0 4.4194174,4.4194174 0 1 1 8.838835,0 z"
       transform="translate(118.48882,96.213205)" />
    <text
       xml:space="preserve"
       style="font-size:6.383811px;font-style:normal;font-weight:normal;line-height:125%;letter-spacing:0px;word-spacing:0px;fill:#fff8c5;fill-opacity:1;stroke:none;font-family:Sans"
       x="101.21519"
       y="175.84613"
       id="text3002-1"
       sodipodi:linespacing="125%"><tspan
         sodipodi:role="line"
         id="tspan3004-6"
         x="101.21519"
         y="175.84613">P</tspan></text>
    <path
       sodipodi:type="arc"
       style="fill:#555400;fill-opacity:1;stroke:#dee45a;stroke-opacity:1;filter:url(#filter3778-4-2)"
       id="path3000-2-7"
       sodipodi:cx="-15.278557"
       sodipodi:cy="77.438713"
       sodipodi:rx="4.4194174"
       sodipodi:ry="4.4194174"
       d="m -10.859139,77.438713 a 4.4194174,4.4194174 0 1 1 -8.838835,0 4.4194174,4.4194174 0 1 1 8.838835,0 z"
       transform="translate(53.488817,96.213205)" />
    <text
       xml:space="preserve"
       style="font-size:6.383811px;font-style:normal;font-weight:normal;line-height:125%;letter-spacing:0px;word-spacing:0px;fill:#fff8c5;fill-opacity:1;stroke:none;font-family:Sans"
       x="36.215183"
       y="175.84613"
       id="text3002-5-5"
       sodipodi:linespacing="125%"><tspan
         sodipodi:role="line"
         id="tspan3004-9-3"
         x="36.215183"
         y="175.84613">P</tspan></text>
    <path
       sodipodi:type="arc"
       style="fill:#555400;fill-opacity:1;stroke:#dee45a;stroke-opacity:1;filter:url(#filter3778-44-9)"
       id="path3000-7-3"
       sodipodi:cx="-15.278557"
       sodipodi:cy="77.438713"
       sodipodi:rx="4.4194174"
       sodipodi:ry="4.4194174"
       d="m -10.859139,77.438713 a 4.4194174,4.4194174 0 1 1 -8.838835,0 4.4194174,4.4194174 0 1 1 8.838835,0 z"
       transform="translate(183.48882,96.213205)" />
    <text
       xml:space="preserve"
       style="font-size:6.383811px;font-style:normal;font-weight:normal;line-height:125%;letter-spacing:0px;word-spacing:0px;fill:#fff8c5;fill-opacity:1;stroke:none;font-family:Sans"
       x="166.21519"
       y="175.84613"
       id="text3002-3-1"
       sodipodi:linespacing="125%"><tspan
         sodipodi:role="line"
         id="tspan3004-0-3"
         x="166.21519"
         y="175.84613">P</tspan></text>
    <path
       sodipodi:type="arc"
       style="fill:#555400;fill-opacity:1;stroke:#dee45a;stroke-opacity:1;filter:url(#filter3778-44-7-5)"
       id="path3000-7-4-6"
       sodipodi:cx="-15.278557"
       sodipodi:cy="77.438713"
       sodipodi:rx="4.4194174"
       sodipodi:ry="4.4194174"
       d="m -10.859139,77.438713 a 4.4194174,4.4194174 0 1 1 -8.838835,0 4.4194174,4.4194174 0 1 1 8.838835,0 z"
       transform="translate(248.48882,96.213205)" />
    <text
       xml:space="preserve"
       style="font-size:6.383811px;font-style:normal;font-weight:normal;line-height:125%;letter-spacing:0px;word-spacing:0px;fill:#fff8c5;fill-opacity:1;stroke:none;font-family:Sans"
       x="231.21519"
       y="175.84613"
       id="text3002-3-4-1"
       sodipodi:linespacing="125%"><tspan
         sodipodi:role="line"
         id="tspan3004-0-7-9"
         x="231.21519"
         y="175.84613">P</tspan></text>
    <path
       sodipodi:type="arc"
       style="fill:#555400;fill-opacity:1;stroke:#dee45a;stroke-opacity:1;filter:url(#filter3778-44-5-9)"
       id="path3000-7-8-0"
       sodipodi:cx="-15.278557"
       sodipodi:cy="77.438713"
       sodipodi:rx="4.4194174"
       sodipodi:ry="4.4194174"
       d="m -10.859139,77.438713 a 4.4194174,4.4194174 0 1 1 -8.838835,0 4.4194174,4.4194174 0 1 1 8.838835,0 z"
       transform="translate(378.48882,96.213205)" />
    <text
       xml:space="preserve"
       style="font-size:6.383811px;font-style:normal;font-weight:normal;line-height:125%;letter-spacing:0px;word-spacing:0px;fill:#fff8c5;fill-opacity:1;stroke:none;font-family:Sans"
       x="361.21518"
       y="175.84613"
       id="text3002-3-7-2"
       sodipodi:linespacing="125%"><tspan
         sodipodi:role="line"
         id="tspan3004-0-79-9"
         x="361.21518"
         y="175.84613">P</tspan></text>
    <path
       sodipodi:type="arc"
       style="fill:#555400;fill-opacity:1;stroke:#dee45a;stroke-opacity:1;filter:url(#filter3778-44-1-0)"
       id="path3000-7-2-8"
       sodipodi:cx="-15.278557"
       sodipodi:cy="77.438713"
       sodipodi:rx="4.4194174"
       sodipodi:ry="4.4194174"
       d="m -10.859139,77.438713 a 4.4194174,4.4194174 0 1 1 -8.838835,0 4.4194174,4.4194174 0 1 1 8.838835,0 z"
       transform="translate(443.48882,96.213205)" />
    <text
       xml:space="preserve"
       style="font-size:6.383811px;font-style:normal;font-weight:normal;line-height:125%;letter-spacing:0px;word-spacing:0px;fill:#fff8c5;fill-opacity:1;stroke:none;font-family:Sans"
       x="426.21518"
       y="175.84613"
       id="text3002-3-6-1"
       sodipodi:linespacing="125%"><tspan
         sodipodi:role="line"
         id="tspan3004-0-2-7"
         x="426.21518"
         y="175.84613">P</tspan></text>
    <path
       sodipodi:type="arc"
       style="fill:#555400;fill-opacity:1;stroke:#dee45a;stroke-opacity:1;filter:url(#filter3778-44-3-9)"
       id="path3000-7-0-1"
       sodipodi:cx="-15.278557"
       sodipodi:cy="77.438713"
       sodipodi:rx="4.4194174"
       sodipodi:ry="4.4194174"
       d="m -10.859139,77.438713 a 4.4194174,4.4194174 0 1 1 -8.838835,0 4.4194174,4.4194174 0 1 1 8.838835,0 z"
       transform="translate(313.48882,96.213205)" />
    <text
       xml:space="preserve"
       style="font-size:6.383811px;font-style:normal;font-weight:normal;line-height:125%;letter-spacing:0px;word-spacing:0px;fill:#fff8c5;fill-opacity:1;stroke:none;font-family:Sans"
       x="296.21518"
       y="175.84613"
       id="text3002-3-9-8"
       sodipodi:linespacing="125%"><tspan
         sodipodi:role="line"
         id="tspan3004-0-74-8"
         x="296.21518"
         y="175.84613">P</tspan></text>
    <path
       sodipodi:type="arc"
       style="fill:#555400;fill-opacity:1;stroke:#dee45a;stroke-opacity:1;filter:url(#filter3778-44-56-0)"
       id="path3000-7-9-9"
       sodipodi:cx="-15.278557"
       sodipodi:cy="77.438713"
       sodipodi:rx="4.4194174"
       sodipodi:ry="4.4194174"
       d="m -10.859139,77.438713 a 4.4194174,4.4194174 0 1 1 -8.838835,0 4.4194174,4.4194174 0 1 1 8.838835,0 z"
       transform="translate(508.48882,96.213205)" />
    <text
       xml:space="preserve"
       style="font-size:6.383811px;font-style:normal;font-weight:normal;line-height:125%;letter-spacing:0px;word-spacing:0px;fill:#fff8c5;fill-opacity:1;stroke:none;font-family:Sans"
       x="491.21518"
       y="175.84613"
       id="text3002-3-8-3"
       sodipodi:linespacing="125%"><tspan
         sodipodi:role="line"
         id="tspan3004-0-5-9"
         x="491.21518"
         y="175.84613">P</tspan></text>
    <path
       style="fill:#5f6874;fill-opacity:1;stroke:none"
       d="m 65,234.34831 c 0,15.43 -18.73232,11.65 -34.44061,11.65 -15.70828,0 -30.55939,18.69 -30.55939,3.26 0,-15.44 14.85111,-43.9 30.55939,-43.9 15.70829,0 34.44061,13.55 34.44061,28.99 z"
       id="path2985-5-9-9"
       inkscape:connector-curvature="0"
       sodipodi:nodetypes="sssss"
       inkscape:export-filename="/home/deepak/researchcode/drawcellJS/easel/protein_inert.png"
       inkscape:export-xdpi="90"
       inkscape:export-ydpi="90" />
  </g>
</svg>
